Relief-SingleLine.ufo
<glyph name="exclam" format="2">
  <advance width="341"/>
  <unicode hex="0021"/>
  <outline>
    <contour>
      <point x="172" y="180" type="move"/>
      <point x="172" y="680" type="line"/>
    </contour>
    <component base="period" xOffset="20"/>
  </outline>
</glyph>
<glyph name="numbersign" format="2">
  <advance width="611"/>
  <unicode hex="0023"/>
  <outline>
    <contour>
      <point x="60" y="237" type="move"/>
      <point x="521" y="237" type="line"/>
    </contour>
    <contour>
      <point x="160" y="0" type="move"/>
      <point x="254" y="680" type="line"/>
    </contour>
    <contour>
      <point x="355" y="0" type="move"/>
      <point x="449" y="680" type="line"/>
    </contour>
    <contour>
      <point x="90" y="447" type="move"/>
      <point x="551" y="447" type="line"/>
    </contour>
  </outline>
</glyph>
<glyph name="dollar" format="2">
	<advance width="566"/>
	<unicode hex="0024"/>
	<outline>
		<contour>
			<point x="293" y="-138" type="move"/>
			<point x="293" y="0" type="line"/>
		</contour>
		<contour>
			<point x="293" y="680" type="move"/>
			<point x="293" y="818" type="line"/>
		</contour>
		<component base="S"/>
	</outline>
</glyph>
<glyph name="percent" format="2">
  <advance width="717"/>
  <unicode hex="0025"/>
  <outline>
    <component base="fraction" xOffset="298" identifier="929746FE"/>
    <contour>
      <point x="180" y="680" type="move"/>
      <point x="106" y="680"/>
      <point x="70" y="604"/>
      <point x="70" y="509" type="curve" smooth="yes"/>
      <point x="70" y="413"/>
      <point x="106" y="340"/>
      <point x="181" y="340" type="curve" smooth="yes"/>
      <point x="255" y="340"/>
      <point x="291" y="413"/>
      <point x="291" y="509" type="curve" smooth="yes"/>
      <point x="291" y="604"/>
      <point x="255" y="680"/>
      <point x="182" y="680" type="curve"/>
    </contour>
    <contour>
      <point x="536" y="340" type="move"/>
      <point x="462" y="340"/>
      <point x="426" y="264"/>
      <point x="426" y="169" type="curve" smooth="yes"/>
      <point x="426" y="73"/>
      <point x="462" y="0"/>
      <point x="537" y="0" type="curve" smooth="yes"/>
      <point x="611" y="0"/>
      <point x="647" y="73"/>
      <point x="647" y="169" type="curve" smooth="yes"/>
      <point x="647" y="264"/>
      <point x="611" y="340"/>
      <point x="538" y="340" type="curve"/>
    </contour>
  </outline>
</glyph>
<glyph name="ampersand" format="2">
	<advance width="685"/>
	<unicode hex="0026"/>
	<outline>
		<contour>
			<point x="605" y="0" type="move"/>
			<point x="291" y="344" type="line" smooth="yes"/>
			<point x="256" y="383"/>
			<point x="162" y="464"/>
			<point x="162" y="549" type="curve" smooth="yes"/>
			<point x="162" y="618"/>
			<point x="225" y="680"/>
			<point x="311" y="680" type="curve" smooth="yes"/>
			<point x="398" y="680"/>
			<point x="452" y="615"/>
			<point x="452" y="543" type="curve" smooth="yes"/>
			<point x="452" y="359"/>
			<point x="100" y="369"/>
			<point x="100" y="164" type="curve" smooth="yes"/>
			<point x="100" y="68"/>
			<point x="177" y="0"/>
			<point x="291" y="0" type="curve" smooth="yes"/>
			<point x="475" y="0"/>
			<point x="591" y="176"/>
			<point x="591" y="361" type="curve"/>
		</contour>
	</outline>
</glyph>
<glyph name="parenleft" format="2">
  <advance width="300"/>
  <unicode hex="0028"/>
  <outline>
    <contour>
      <point x="230" y="-116" type="move"/>
      <point x="159" y="-2"/>
      <point x="100" y="139"/>
      <point x="100" y="307" type="curve" smooth="yes"/>
      <point x="100" y="475"/>
      <point x="144" y="606"/>
      <point x="230" y="731" type="curve"/>
    </contour>
  </outline>
</glyph>
<glyph name="asterisk" format="2">
  <advance width="432"/>
  <unicode hex="002A"/>
  <outline>
    <contour>
      <point x="312" y="385" type="move"/>
      <point x="216" y="520" type="line"/>
      <point x="120" y="385" type="line"/>
    </contour>
    <contour>
      <point x="60" y="565" type="move"/>
      <point x="216" y="520" type="line"/>
      <point x="372" y="565" type="line"/>
    </contour>
    <contour>
      <point x="216" y="519" type="move"/>
      <point x="216" y="680" type="line"/>
    </contour>
  </outline>
</glyph>
<glyph name="plus" format="2">
  <advance width="635"/>
  <unicode hex="002B"/>
  <outline>
    <contour>
      <point x="316" y="95" type="move"/>
      <point x="316" y="560" type="line"/>
    </contour>
    <contour>
      <point x="85" y="332" type="move"/>
      <point x="550" y="332" type="line"/>
    </contour>
  </outline>
</glyph>
<glyph name="comma" format="2">
	<advance width="258"/>
	<unicode hex="002C"/>
	<outline>
		<contour>
			<point x="90" y="-142" type="move"/>
			<point x="168" y="13" type="line"/>
			<point x="168" y="67" type="line"/>
			<point x="114" y="67" type="line"/>
		</contour>
	</outline>
</glyph>
<glyph name="hyphen" format="2">
	<advance width="417"/>
	<unicode hex="002D"/>
	<outline>
		<contour>
			<point x="100" y="278" type="move"/>
			<point x="317" y="278" type="line"/>
		</contour>
	</outline>
</glyph>
<glyph name="period" format="2">
  <advance width="301"/>
  <unicode hex="002E"/>
  <outline>
    <contour>
      <point x="150" y="72" type="move"/>
      <point x="127" y="72"/>
      <point x="110" y="54"/>
      <point x="110" y="31" type="curve" smooth="yes"/>
      <point x="110" y="8"/>
      <point x="128" y="-10"/>
      <point x="151" y="-10" type="curve" smooth="yes"/>
      <point x="174" y="-10"/>
      <point x="191" y="8"/>
      <point x="191" y="31" type="curve" smooth="yes"/>
      <point x="191" y="54"/>
      <point x="174" y="72"/>
      <point x="152" y="72" type="curve"/>
    </contour>
  </outline>
</glyph>
<glyph name="slash" format="2">
	<advance width="407"/>
	<unicode hex="002F"/>
	<outline>
		<contour>
			<point x="50" y="-10" type="move"/>
			<point x="357" y="690" type="line"/>
		</contour>
	</outline>
</glyph>
<glyph name="one" format="2">
	<advance width="448"/>
	<unicode hex="0031"/>
	<outline>
		<contour>
			<point x="288" y="0" type="move"/>
			<point x="288" y="670" type="line"/>
			<point x="284" y="670" type="line"/>
			<point x="70" y="519" type="line"/>
		</contour>
	</outline>
</glyph>
<glyph name="two" format="2">
	<advance width="550"/>
	<unicode hex="0032"/>
	<outline>
		<contour>
			<point x="465" y="0" type="move"/>
			<point x="65" y="0" type="line"/>
			<point x="65" y="4" type="line"/>
			<point x="288" y="249" type="line" smooth="yes"/>
			<point x="364" y="333"/>
			<point x="440" y="412"/>
			<point x="440" y="519" type="curve" smooth="yes"/>
			<point x="440" y="628"/>
			<point x="361" y="680"/>
			<point x="274" y="680" type="curve" smooth="yes"/>
			<point x="186" y="680"/>
			<point x="113" y="628"/>
			<point x="84" y="542" type="curve"/>
		</contour>
	</outline>
</glyph>
<glyph name="three" format="2">
	<advance width="566"/>
	<unicode hex="0033"/>
	<outline>
		<contour>
			<point x="75" y="123" type="move"/>
			<point x="94" y="49"/>
			<point x="166" y="-1"/>
			<point x="263" y="-1" type="curve" smooth="yes"/>
			<point x="381" y="-1"/>
			<point x="456" y="73"/>
			<point x="456" y="175" type="curve" smooth="yes"/>
			<point x="456" y="264"/>
			<point x="400" y="359"/>
			<point x="249" y="359" type="curve"/>
			<point x="218" y="359" type="line"/>
		</contour>
		<contour>
			<point x="249" y="359" type="move"/>
			<point x="383" y="359"/>
			<point x="446" y="436"/>
			<point x="446" y="526" type="curve" smooth="yes"/>
			<point x="446" y="608"/>
			<point x="392" y="680"/>
			<point x="273" y="680" type="curve" smooth="yes"/>
			<point x="177" y="680"/>
			<point x="119" y="632"/>
			<point x="90" y="579" type="curve"/>
		</contour>
	</outline>
</glyph>
<glyph name="four" format="2">
	<advance width="569"/>
	<unicode hex="0034"/>
	<outline>
		<contour>
			<point x="385" y="0" type="move"/>
			<point x="385" y="670" type="line"/>
			<point x="375" y="670" type="line"/>
			<point x="65" y="164" type="line"/>
			<point x="65" y="160" type="line"/>
			<point x="509" y="160" type="line"/>
		</contour>
	</outline>
</glyph>
<glyph name="five" format="2">
	<advance width="558"/>
	<unicode hex="0035"/>
	<outline>
		<contour>
			<point x="95" y="138" type="move" smooth="yes"/>
			<point x="127" y="49"/>
			<point x="193" y="0"/>
			<point x="276" y="0" type="curve" smooth="yes"/>
			<point x="385" y="0"/>
			<point x="467" y="84"/>
			<point x="467" y="208" type="curve" smooth="yes"/>
			<point x="467" y="325"/>
			<point x="393" y="415"/>
			<point x="274" y="415" type="curve" smooth="yes"/>
			<point x="228" y="415"/>
			<point x="169" y="402"/>
			<point x="127" y="376" type="curve"/>
			<point x="137" y="670" type="line"/>
			<point x="449" y="670" type="line"/>
		</contour>
	</outline>
</glyph>
<glyph name="six" format="2">
	<advance width="567"/>
	<unicode hex="0036"/>
	<outline>
		<contour>
			<point x="360" y="680" type="move"/>
			<point x="201" y="468" type="line" smooth="yes"/>
			<point x="119" y="359"/>
			<point x="90" y="284"/>
			<point x="90" y="205" type="curve" smooth="yes"/>
			<point x="90" y="105"/>
			<point x="144" y="0"/>
			<point x="292" y="0" type="curve" smooth="yes"/>
			<point x="420" y="0"/>
			<point x="492" y="84"/>
			<point x="492" y="198" type="curve" smooth="yes"/>
			<point x="492" y="324"/>
			<point x="401" y="401"/>
			<point x="298" y="401" type="curve" smooth="yes"/>
			<point x="229" y="401"/>
			<point x="151" y="368"/>
			<point x="105" y="297" type="curve" smooth="yes"/>
		</contour>
	</outline>
</glyph>
<glyph name="seven" format="2">
	<advance width="495"/>
	<unicode hex="0037"/>
	<outline>
		<contour>
			<point x="126" y="0" type="move"/>
			<point x="445" y="666" type="line"/>
			<point x="445" y="670" type="line"/>
			<point x="40" y="670" type="line"/>
		</contour>
	</outline>
</glyph>
<glyph name="eight" format="2">
  <advance width="559"/>
  <unicode hex="0038"/>
  <outline>
    <contour>
      <point x="278" y="680" type="move"/>
      <point x="377" y="680"/>
      <point x="446" y="618"/>
      <point x="446" y="537" type="curve" smooth="yes"/>
      <point x="446" y="353"/>
      <point x="90" y="370"/>
      <point x="90" y="162" type="curve" smooth="yes"/>
      <point x="90" y="57"/>
      <point x="181" y="0"/>
      <point x="278" y="0" type="curve" smooth="yes"/>
      <point x="374" y="0"/>
      <point x="469" y="56"/>
      <point x="469" y="162" type="curve" smooth="yes"/>
      <point x="469" y="368"/>
      <point x="112" y="350"/>
      <point x="112" y="537" type="curve" smooth="yes"/>
      <point x="112" y="610"/>
      <point x="166" y="680"/>
      <point x="276" y="680" type="curve"/>
    </contour>
  </outline>
</glyph>
<glyph name="less" format="2">
  <advance width="652"/>
  <unicode hex="003C"/>
  <outline>
    <contour>
      <point x="552" y="522" type="move"/>
      <point x="100" y="288" type="line"/>
      <point x="100" y="284" type="line"/>
      <point x="552" y="50" type="line"/>
    </contour>
  </outline>
</glyph>
<glyph name="equal" format="2">
  <advance width="554"/>
  <unicode hex="003D"/>
  <outline>
    <contour>
      <point x="454" y="222" type="move"/>
      <point x="100" y="222" type="line"/>
    </contour>
    <contour>
      <point x="454" y="422" type="move"/>
      <point x="100" y="422" type="line"/>
    </contour>
  </outline>
</glyph>
<glyph name="question" format="2">
  <advance width="493"/>
  <unicode hex="003F"/>
  <outline>
    <contour>
      <point x="225" y="180" type="move"/>
      <point x="225" y="242" type="line" smooth="yes"/>
      <point x="225" y="293"/>
      <point x="242" y="325"/>
      <point x="302" y="377" type="curve" smooth="yes"/>
      <point x="342" y="412"/>
      <point x="383" y="463"/>
      <point x="383" y="534" type="curve" smooth="yes"/>
      <point x="383" y="617"/>
      <point x="327" y="680"/>
      <point x="230" y="680" type="curve" smooth="yes"/>
      <point x="164" y="680"/>
      <point x="96" y="650"/>
      <point x="70" y="575" type="curve"/>
    </contour>
    <component base="period" xOffset="79"/>
  </outline>
</glyph>
<glyph name="at" format="2">
	<advance width="862"/>
	<unicode hex="0040"/>
	<outline>
		<contour>
			<point x="538" y="171" type="move" smooth="yes"/>
			<point x="500" y="121"/>
			<point x="453" y="82"/>
			<point x="393" y="82" type="curve" smooth="yes"/>
			<point x="327" y="82"/>
			<point x="297" y="128"/>
			<point x="297" y="182" type="curve" smooth="yes"/>
			<point x="297" y="260"/>
			<point x="358" y="296"/>
			<point x="496" y="296" type="curve" smooth="yes"/>
			<point x="496" y="296"/>
			<point x="538" y="296"/>
			<point x="538" y="296" type="curve"/>
		</contour>
		<contour>
			<point x="313" y="388" type="move"/>
			<point x="337" y="441"/>
			<point x="371" y="468"/>
			<point x="428" y="468" type="curve" smooth="yes"/>
			<point x="511" y="468"/>
			<point x="538" y="412"/>
			<point x="538" y="345" type="curve" smooth="yes"/>
			<point x="538" y="167" type="line" smooth="yes"/>
			<point x="538" y="131"/>
			<point x="555" y="82"/>
			<point x="615" y="82" type="curve" smooth="yes"/>
			<point x="697" y="82"/>
			<point x="767" y="173"/>
			<point x="767" y="308" type="curve" smooth="yes"/>
			<point x="767" y="495"/>
			<point x="629" y="632"/>
			<point x="447" y="632" type="curve" smooth="yes"/>
			<point x="257" y="632"/>
			<point x="95" y="494"/>
			<point x="95" y="272" type="curve" smooth="yes"/>
			<point x="95" y="55"/>
			<point x="241" y="-86"/>
			<point x="456" y="-86" type="curve" smooth="yes"/>
			<point x="529" y="-86"/>
			<point x="586" y="-69"/>
			<point x="632" y="-42" type="curve"/>
		</contour>
	</outline>
</glyph>
<glyph name="A" format="2">
  <advance width="676"/>
  <unicode hex="0041"/>
  <anchor x="338" y="0" name="bottom"/>
  <anchor x="606" y="0" name="ogonek"/>
  <anchor x="340" y="680" name="top"/>
  <outline>
    <contour>
      <point x="155" y="213" type="move"/>
      <point x="522" y="213" type="line"/>
    </contour>
    <contour>
      <point x="606" y="0" type="move"/>
      <point x="342" y="675" type="line"/>
      <point x="338" y="675" type="line"/>
      <point x="70" y="0" type="line"/>
    </contour>
  </outline>
</glyph>
<glyph name="B" format="2">
  <advance width="634"/>
  <unicode hex="0042"/>
  <outline>
    <contour>
      <point x="140" y="10" type="move"/>
      <point x="302" y="10" type="line" smooth="yes"/>
      <point x="475" y="10"/>
      <point x="534" y="85"/>
      <point x="534" y="184" type="curve" smooth="yes"/>
      <point x="534" y="288"/>
      <point x="469" y="356"/>
      <point x="310" y="356" type="curve" smooth="yes"/>
      <point x="140" y="356" type="line"/>
    </contour>
    <contour>
      <point x="330" y="356" type="move"/>
      <point x="428" y="356"/>
      <point x="514" y="404"/>
      <point x="514" y="515" type="curve" smooth="yes"/>
      <point x="514" y="593"/>
      <point x="471" y="670"/>
      <point x="301" y="670" type="curve" smooth="yes"/>
      <point x="140" y="670" type="line"/>
      <point x="140" y="10" type="line"/>
    </contour>
  </outline>
</glyph>
<glyph name="C" format="2">
	<advance width="665"/>
	<unicode hex="0043"/>
	<anchor x="352" y="0" name="bottom"/>
	<anchor x="357" y="680" name="top"/>
	<outline>
		<contour>
			<point x="566" y="537" type="move"/>
			<point x="529" y="631"/>
			<point x="460" y="680"/>
			<point x="358" y="680" type="curve" smooth="yes"/>
			<point x="187" y="680"/>
			<point x="95" y="544"/>
			<point x="95" y="341" type="curve" smooth="yes"/>
			<point x="95" y="117"/>
			<point x="208" y="0"/>
			<point x="358" y="0" type="curve" smooth="yes"/>
			<point x="475" y="0"/>
			<point x="552" y="71"/>
			<point x="580" y="153" type="curve"/>
		</contour>
	</outline>
</glyph>
<glyph name="D" format="2">
  <advance width="693"/>
  <unicode hex="0044"/>
  <anchor x="354" y="0" name="bottom"/>
  <anchor x="354" y="340" name="center"/>
  <anchor x="354" y="680" name="top"/>
  <outline>
    <contour>
      <point x="140" y="10" type="move"/>
      <point x="140" y="670" type="line"/>
      <point x="287" y="670" type="line" smooth="yes"/>
      <point x="484" y="670"/>
      <point x="609" y="543"/>
      <point x="608" y="339" type="curve" smooth="yes"/>
      <point x="607" y="103"/>
      <point x="440" y="10"/>
      <point x="260" y="10" type="curve" smooth="yes"/>
      <point x="142" y="10" type="line"/>
    </contour>
  </outline>
</glyph>
<glyph name="E" format="2">
	<advance width="591"/>
	<unicode hex="0045"/>
	<anchor x="336" y="10" name="bottom"/>
	<anchor x="441" y="10" name="ogonek"/>
	<anchor x="316" y="680" name="top"/>
	<anchor x="30" y="696" name="topleft"/>
	<outline>
		<contour>
			<point x="501" y="10" type="move"/>
			<point x="140" y="10" type="line"/>
			<point x="140" y="670" type="line"/>
			<point x="501" y="670" type="line"/>
		</contour>
		<contour>
			<point x="140" y="356" type="move"/>
			<point x="484" y="356" type="line"/>
		</contour>
	</outline>
</glyph>
<glyph name="F" format="2">
	<advance width="551"/>
	<unicode hex="0046"/>
	<outline>
		<contour>
			<point x="140" y="0" type="move"/>
			<point x="140" y="670" type="line"/>
			<point x="481" y="670" type="line"/>
		</contour>
		<contour>
			<point x="140" y="347" type="move"/>
			<point x="464" y="347" type="line"/>
		</contour>
	</outline>
</glyph>
<glyph name="G" format="2">
  <advance width="676"/>
  <unicode hex="0047"/>
  <anchor x="336" y="0" name="bottom"/>
  <anchor x="356" y="680" name="top"/>
  <outline>
    <contour>
      <point x="566" y="537" type="move"/>
      <point x="529" y="631"/>
      <point x="460" y="680"/>
      <point x="358" y="680" type="curve" smooth="yes"/>
      <point x="196" y="680"/>
      <point x="95" y="556"/>
      <point x="95" y="340" type="curve" smooth="yes"/>
      <point x="95" y="152"/>
      <point x="169" y="0"/>
      <point x="363" y="0" type="curve" smooth="yes"/>
      <point x="443" y="0"/>
      <point x="509" y="26"/>
      <point x="560" y="57" type="curve"/>
      <point x="560" y="334" type="line"/>
      <point x="383" y="334" type="line"/>
    </contour>
  </outline>
</glyph>
<glyph name="H" format="2">
  <advance width="706"/>
  <unicode hex="0048"/>
  <anchor x="353" y="0" name="bottom"/>
  <anchor x="353" y="340" name="center"/>
  <anchor x="353" y="680" name="top"/>
  <anchor x="30" y="680" name="topleft"/>
  <outline>
    <contour>
      <point x="140" y="680" type="move"/>
      <point x="140" y="0" type="line"/>
    </contour>
    <contour>
      <point x="140" y="365" type="move"/>
      <point x="566" y="365" type="line"/>
    </contour>
    <contour>
      <point x="566" y="0" type="move"/>
      <point x="566" y="680" type="line"/>
    </contour>
  </outline>
</glyph>
<glyph name="I" format="2">
	<advance width="280"/>
	<unicode hex="0049"/>
	<anchor x="140" y="0" name="bottom"/>
	<anchor x="140" y="0" name="ogonek"/>
	<anchor x="140" y="680" name="top"/>
	<anchor x="29" y="680" name="topleft"/>
	<outline>
		<contour>
			<point x="140" y="0" type="move"/>
			<point x="140" y="680" type="line"/>
		</contour>
	</outline>
</glyph>
<glyph name="J" format="2">
	<advance width="361"/>
	<unicode hex="004A"/>
	<anchor x="181" y="0" name="bottom"/>
	<anchor x="231" y="680" name="top"/>
	<outline>
		<contour>
			<point x="50" y="29" type="move" smooth="yes"/>
			<point x="73" y="7"/>
			<point x="103" y="0"/>
			<point x="128" y="0" type="curve" smooth="yes"/>
			<point x="185" y="0"/>
			<point x="231" y="35"/>
			<point x="231" y="138" type="curve" smooth="yes"/>
			<point x="231" y="680" type="line"/>
		</contour>
	</outline>
</glyph>
<glyph name="K" format="2">
	<advance width="577"/>
	<unicode hex="004B"/>
	<anchor x="296" y="0" name="bottom"/>
	<anchor x="296" y="680" name="top"/>
	<outline>
		<contour>
			<point x="140" y="0" type="move"/>
			<point x="140" y="680" type="line"/>
		</contour>
		<contour>
			<point x="527" y="0" type="move"/>
			<point x="191" y="359" type="line"/>
			<point x="503" y="680" type="line"/>
		</contour>
	</outline>
</glyph>
<glyph name="L" format="2">
	<advance width="508"/>
	<unicode hex="004C"/>
	<anchor x="254" y="0" name="bottom"/>
	<anchor x="254" y="340" name="center"/>
	<anchor x="208" y="680" name="top"/>
	<anchor x="333" y="734" name="topright"/>
	<outline>
		<contour>
			<point x="458" y="10" type="move"/>
			<point x="140" y="10" type="line"/>
			<point x="140" y="680" type="line"/>
		</contour>
	</outline>
</glyph>
<glyph name="M" format="2">
  <advance width="862"/>
  <unicode hex="004D"/>
  <outline>
    <contour>
      <point x="722" y="0" type="move"/>
      <point x="722" y="675" type="line"/>
      <point x="718" y="675" type="line"/>
      <point x="433" y="30" type="line"/>
      <point x="429" y="30" type="line"/>
      <point x="144" y="675" type="line"/>
      <point x="140" y="675" type="line"/>
      <point x="140" y="0" type="line"/>
    </contour>
  </outline>
</glyph>
<glyph name="N" format="2">
	<advance width="740"/>
	<unicode hex="004E"/>
	<anchor x="370" y="0" name="bottom"/>
	<anchor x="370" y="680" name="top"/>
	<outline>
		<contour>
			<point x="140" y="0" type="move"/>
			<point x="140" y="675" type="line"/>
			<point x="144" y="675" type="line"/>
			<point x="596" y="5" type="line"/>
			<point x="600" y="5" type="line"/>
			<point x="599" y="680" type="line"/>
		</contour>
	</outline>
</glyph>
<glyph name="O" format="2">
  <advance width="716"/>
  <unicode hex="004F"/>
  <anchor x="358" y="0" name="bottom"/>
  <anchor x="358" y="340" name="center"/>
  <anchor x="358" y="0" name="ogonek"/>
  <anchor x="358" y="680" name="top"/>
  <anchor x="25" y="696" name="topleft"/>
  <anchor x="691" y="696" name="topright"/>
  <outline>
    <contour>
      <point x="357" y="680" type="move"/>
      <point x="168" y="680"/>
      <point x="95" y="501"/>
      <point x="95" y="341" type="curve" smooth="yes"/>
      <point x="95" y="207"/>
      <point x="147" y="0"/>
      <point x="358" y="0" type="curve" smooth="yes"/>
      <point x="569" y="0"/>
      <point x="621" y="207"/>
      <point x="621" y="341" type="curve" smooth="yes"/>
      <point x="621" y="501"/>
      <point x="548" y="680"/>
      <point x="359" y="680" type="curve"/>
    </contour>
  </outline>
</glyph>
<glyph name="P" format="2">
  <advance width="590"/>
  <unicode hex="0050"/>
  <outline>
    <contour>
      <point x="140" y="0" type="move"/>
      <point x="140" y="670" type="line"/>
      <point x="317" y="670" type="line" smooth="yes"/>
      <point x="458" y="670"/>
      <point x="525" y="594"/>
      <point x="525" y="488" type="curve" smooth="yes"/>
      <point x="525" y="379"/>
      <point x="454" y="316"/>
      <point x="314" y="316" type="curve" smooth="yes"/>
      <point x="140" y="316" type="line"/>
    </contour>
  </outline>
</glyph>
<glyph name="Q" format="2">
	<advance width="716"/>
	<unicode hex="0051"/>
	<outline>
		<contour>
			<point x="599" y="-138" type="move"/>
			<point x="428" y="7" type="line"/>
		</contour>
		<component base="O"/>
	</outline>
</glyph>
<glyph name="R" format="2">
	<advance width="604"/>
	<unicode hex="0052"/>
	<anchor x="305" y="0" name="bottom"/>
	<anchor x="300" y="680" name="top"/>
	<outline>
		<contour>
			<point x="140" y="0" type="move"/>
			<point x="140" y="670" type="line"/>
		</contour>
		<contour>
			<point x="519" y="0" type="move"/>
			<point x="343" y="344" type="line"/>
		</contour>
		<contour>
			<point x="140" y="344" type="move"/>
			<point x="325" y="344" type="line" smooth="yes"/>
			<point x="423" y="344"/>
			<point x="506" y="404"/>
			<point x="506" y="507" type="curve" smooth="yes"/>
			<point x="506" y="594"/>
			<point x="447" y="670"/>
			<point x="313" y="670" type="curve" smooth="yes"/>
			<point x="140" y="670" type="line" smooth="yes"/>
		</contour>
	</outline>
</glyph>
<glyph name="S" format="2">
	<advance width="566"/>
	<unicode hex="0053"/>
	<anchor x="292" y="0" name="bottom"/>
	<anchor x="298" y="680" name="top"/>
	<outline>
		<contour>
			<point x="95" y="109" type="move"/>
			<point x="123" y="43"/>
			<point x="193" y="0"/>
			<point x="285" y="0" type="curve" smooth="yes"/>
			<point x="404" y="0"/>
			<point x="476" y="74"/>
			<point x="476" y="163" type="curve" smooth="yes"/>
			<point x="476" y="364"/>
			<point x="109" y="334"/>
			<point x="109" y="526" type="curve" smooth="yes"/>
			<point x="109" y="605"/>
			<point x="171" y="680"/>
			<point x="293" y="680" type="curve" smooth="yes"/>
			<point x="379" y="680"/>
			<point x="432" y="642"/>
			<point x="456" y="590" type="curve"/>
		</contour>
	</outline>
</glyph>
<glyph name="T" format="2">
  <advance width="520"/>
  <unicode hex="0054"/>
  <anchor x="260" y="0" name="bottom"/>
  <anchor x="260" y="340" name="center"/>
  <anchor x="260" y="680" name="top"/>
  <outline>
    <contour>
      <point x="260" y="0" type="move"/>
      <point x="260" y="670" type="line"/>
    </contour>
    <contour>
      <point x="40" y="670" type="move"/>
      <point x="480" y="670" type="line"/>
    </contour>
  </outline>
</glyph>
<glyph name="U" format="2">
  <advance width="694"/>
  <unicode hex="0055"/>
  <anchor x="347" y="0" name="bottom"/>
  <anchor x="362" y="0" name="ogonek"/>
  <anchor x="346" y="680" name="top"/>
  <anchor x="664" y="696" name="topright"/>
  <outline>
    <contour>
      <point x="130" y="680" type="move"/>
      <point x="130" y="245" type="line" smooth="yes"/>
      <point x="130" y="87"/>
      <point x="218" y="0"/>
      <point x="347" y="0" type="curve" smooth="yes"/>
      <point x="482" y="0"/>
      <point x="564" y="87"/>
      <point x="564" y="245" type="curve" smooth="yes"/>
      <point x="564" y="680" type="line"/>
    </contour>
  </outline>
</glyph>
<glyph name="V" format="2">
  <advance width="641"/>
  <unicode hex="0056"/>
  <outline>
    <contour>
      <point x="70" y="680" type="move"/>
      <point x="319" y="5" type="line"/>
      <point x="323" y="5" type="line"/>
      <point x="571" y="680" type="line"/>
    </contour>
  </outline>
</glyph>
<glyph name="W" format="2">
	<advance width="910"/>
	<unicode hex="0057"/>
	<anchor x="455" y="0" name="bottom"/>
	<anchor x="453" y="680" name="top"/>
	<outline>
		<contour>
			<point x="80" y="680" type="move"/>
			<point x="255" y="5" type="line"/>
			<point x="259" y="5" type="line"/>
			<point x="450" y="670" type="line"/>
			<point x="454" y="670" type="line"/>
			<point x="645" y="5" type="line"/>
			<point x="649" y="5" type="line"/>
			<point x="830" y="680" type="line"/>
		</contour>
	</outline>
</glyph>
<glyph name="Y" format="2">
  <advance width="575"/>
  <unicode hex="0059"/>
  <anchor x="288" y="-16" name="bottom"/>
  <anchor x="291" y="680" name="top"/>
  <anchor x="50" y="680" name="topleft"/>
  <outline>
    <contour>
      <point x="285" y="0" type="move"/>
      <point x="285" y="296" type="line"/>
    </contour>
    <contour>
      <point x="50" y="680" type="move"/>
      <point x="285" y="296" type="line"/>
      <point x="525" y="680" type="line"/>
    </contour>
  </outline>
</glyph>
<glyph name="Z" format="2">
	<advance width="609"/>
	<unicode hex="005A"/>
	<anchor x="305" y="0" name="bottom"/>
	<anchor x="305" y="340" name="center"/>
	<anchor x="300" y="680" name="top"/>
	<outline>
		<contour>
			<point x="509" y="10" type="move"/>
			<point x="111" y="10" type="line"/>
			<point x="111" y="14" type="line"/>
			<point x="498" y="666" type="line"/>
			<point x="498" y="670" type="line"/>
			<point x="110" y="670" type="line"/>
		</contour>
	</outline>
</glyph>
<glyph name="bracketleft" format="2">
	<advance width="295"/>
	<unicode hex="005B"/>
	<outline>
		<contour>
			<point x="225" y="-116" type="move"/>
			<point x="100" y="-116" type="line"/>
			<point x="100" y="731" type="line"/>
			<point x="225" y="731" type="line"/>
		</contour>
	</outline>
</glyph>
<glyph name="asciicircum" format="2">
  <advance width="438"/>
  <unicode hex="005E"/>
  <outline>
    <contour>
      <point x="378" y="361" type="move"/>
      <point x="221" y="680" type="line"/>
      <point x="217" y="680" type="line"/>
      <point x="60" y="361" type="line"/>
    </contour>
  </outline>
</glyph>
<glyph name="underscore" format="2">
	<advance width="410"/>
	<unicode hex="005F"/>
	<outline>
		<contour>
			<point x="400" y="-155" type="move"/>
			<point x="10" y="-155" type="line"/>
		</contour>
	</outline>
</glyph>
<glyph name="a" format="2">
	<advance width="561"/>
	<unicode hex="0061"/>
	<anchor x="226" y="0" name="bottom"/>
	<anchor x="441" y="0" name="ogonek"/>
	<anchor x="281" y="555" name="top"/>
	<outline>
		<contour>
			<point x="437" y="308" type="move"/>
			<point x="376" y="308" type="line" smooth="yes"/>
			<point x="174" y="308"/>
			<point x="90" y="255"/>
			<point x="90" y="141" type="curve" smooth="yes"/>
			<point x="90" y="68"/>
			<point x="134" y="0"/>
			<point x="229" y="0" type="curve" smooth="yes"/>
			<point x="315" y="0"/>
			<point x="382" y="57"/>
			<point x="437" y="130" type="curve" smooth="yes"/>
		</contour>
		<contour>
			<point x="441" y="0" type="move"/>
			<point x="438" y="37"/>
			<point x="437" y="97"/>
			<point x="437" y="138" type="curve" smooth="yes"/>
			<point x="437" y="378" type="line" smooth="yes"/>
			<point x="437" y="475"/>
			<point x="398" y="555"/>
			<point x="282" y="555" type="curve" smooth="yes"/>
			<point x="197" y="555"/>
			<point x="147" y="516"/>
			<point x="114" y="440" type="curve"/>
		</contour>
	</outline>
</glyph>
<glyph name="b" format="2">
  <advance width="611"/>
  <unicode hex="0062"/>
  <outline>
    <contour>
      <point x="138" y="0" type="move"/>
      <point x="138" y="745" type="line"/>
    </contour>
    <component base="_module_rond" xOffset="138"/>
  </outline>
</glyph>
<glyph name="d" format="2">
	<advance width="613"/>
	<unicode hex="0064"/>
	<guideline x="258" y="697" angle="0"/>
	<anchor x="473" y="0" name="bottom"/>
	<anchor x="473" y="278" name="center"/>
	<anchor x="473" y="687" name="top"/>
	<anchor x="623" y="745" name="topright"/>
	<outline>
		<contour>
			<point x="473" y="745" type="move"/>
			<point x="473" y="0" type="line"/>
		</contour>
		<component base="_module_rond" xScale="-1" xOffset="473"/>
	</outline>
</glyph>
<glyph name="e" format="2">
  <advance width="561"/>
  <unicode hex="0065"/>
  <anchor x="291" y="0" name="bottom"/>
  <anchor x="412" y="35" name="ogonek"/>
  <anchor x="295" y="555" name="top"/>
  <outline>
    <contour>
      <point x="92" y="305" type="move"/>
      <point x="476" y="305" type="line"/>
      <point x="476" y="417"/>
      <point x="439" y="555"/>
      <point x="294" y="555" type="curve" smooth="yes"/>
      <point x="169" y="555"/>
      <point x="90" y="451"/>
      <point x="90" y="275" type="curve" smooth="yes"/>
      <point x="90" y="116"/>
      <point x="154" y="0"/>
      <point x="297" y="0" type="curve" smooth="yes"/>
      <point x="391" y="0"/>
      <point x="443" y="51"/>
      <point x="468" y="110" type="curve" smooth="yes"/>
    </contour>
  </outline>
</glyph>
<glyph name="g" format="2">
	<advance width="608"/>
	<unicode hex="0067"/>
	<anchor x="294" y="-188" name="bottom"/>
	<anchor x="308" y="555" name="top"/>
	<outline>
		<contour>
			<point x="473" y="421" type="move"/>
			<point x="419" y="517"/>
			<point x="352" y="555"/>
			<point x="280" y="555" type="curve" smooth="yes"/>
			<point x="157" y="555"/>
			<point x="90" y="447"/>
			<point x="90" y="289" type="curve" smooth="yes"/>
			<point x="90" y="147"/>
			<point x="144" y="20"/>
			<point x="280" y="20" type="curve" smooth="yes"/>
			<point x="365" y="20"/>
			<point x="430" y="68"/>
			<point x="473" y="147" type="curve"/>
		</contour>
		<component base="_module_g" xOffset="127"/>
	</outline>
</glyph>
<glyph name="h" format="2">
	<advance width="608"/>
	<unicode hex="0068"/>
	<anchor x="304" y="0" name="bottom"/>
	<anchor x="304" y="373" name="center"/>
	<anchor x="304" y="745" name="top"/>
	<outline>
		<contour>
			<point x="140" y="745" type="move"/>
			<point x="140" y="0" type="line"/>
		</contour>
		<component base="_module_n" xOffset="140"/>
	</outline>
</glyph>
<glyph name="k" format="2">
  <advance width="528"/>
  <unicode hex="006B"/>
  <anchor x="289" y="0" name="bottom"/>
  <anchor x="269" y="745" name="top"/>
  <outline>
    <contour>
      <point x="140" y="0" type="move"/>
      <point x="140" y="745" type="line"/>
    </contour>
    <contour>
      <point x="478" y="0" type="move"/>
      <point x="200" y="302" type="line"/>
      <point x="456" y="555" type="line"/>
    </contour>
  </outline>
</glyph>
<glyph name="l" format="2">
  <advance width="307"/>
  <unicode hex="006C"/>
  <anchor x="194" y="0" name="bottom"/>
  <anchor x="135" y="389" name="center"/>
  <anchor x="202" y="745" name="top"/>
  <anchor x="285" y="745" name="topright"/>
  <outline>
    <contour>
      <point x="252" y="4" type="move"/>
      <point x="245" y="2"/>
      <point x="234" y="0"/>
      <point x="221" y="0" type="curve" smooth="yes"/>
      <point x="164" y="0"/>
      <point x="135" y="35"/>
      <point x="135" y="107" type="curve" smooth="yes"/>
      <point x="135" y="745" type="line"/>
    </contour>
  </outline>
</glyph>
<glyph name="m" format="2">
  <advance width="941"/>
  <unicode hex="006D"/>
  <outline>
    <contour>
      <point x="140" y="555" type="move"/>
      <point x="140" y="0" type="line"/>
    </contour>
    <component base="_module_n" xOffset="140" identifier="09ADA856"/>
    <component base="_module_n" xOffset="473" identifier="894265E6"/>
  </outline>
</glyph>
<glyph name="n" format="2">
  <advance width="608"/>
  <unicode hex="006E"/>
  <anchor x="314" y="0" name="bottom"/>
  <anchor x="314" y="555" name="top"/>
  <outline>
    <contour>
      <point x="140" y="555" type="move"/>
      <point x="140" y="0" type="line"/>
    </contour>
    <component base="_module_n" xOffset="140" identifier="AFABA51E"/>
  </outline>
</glyph>
<glyph name="p" format="2">
  <advance width="613"/>
  <unicode hex="0070"/>
  <outline>
    <contour>
      <point x="140" y="555" type="move"/>
      <point x="140" y="-190" type="line"/>
    </contour>
    <component base="_module_rond" xOffset="140" identifier="27D418B1"/>
  </outline>
</glyph>
<glyph name="q" format="2">
	<advance width="613"/>
	<unicode hex="0071"/>
	<outline>
		<contour>
			<point x="473" y="555" type="move"/>
			<point x="473" y="-190" type="line"/>
		</contour>
		<component base="_module_rond" xScale="-1" xOffset="473"/>
	</outline>
</glyph>
<glyph name="r" format="2">
	<advance width="394"/>
	<unicode hex="0072"/>
	<anchor x="110" y="0" name="bottom"/>
	<anchor x="234" y="555" name="top"/>
	<outline>
		<contour>
			<point x="140" y="555" type="move"/>
			<point x="140" y="0" type="line"/>
		</contour>
		<contour>
			<point x="140" y="415" type="move"/>
			<point x="211" y="497"/>
			<point x="277" y="555"/>
			<point x="338" y="555" type="curve" smooth="yes"/>
		</contour>
	</outline>
</glyph>
<glyph name="s" format="2">
	<advance width="521"/>
	<unicode hex="0073"/>
	<anchor x="265" y="0" name="bottom"/>
	<anchor x="267" y="555" name="top"/>
	<outline>
		<contour>
			<point x="90" y="118" type="move" smooth="yes"/>
			<point x="114" y="44"/>
			<point x="185" y="0"/>
			<point x="270" y="0" type="curve" smooth="yes"/>
			<point x="351" y="0"/>
			<point x="436" y="41"/>
			<point x="436" y="135" type="curve" smooth="yes"/>
			<point x="436" y="320"/>
			<point x="109" y="256"/>
			<point x="109" y="430" type="curve" smooth="yes"/>
			<point x="109" y="518"/>
			<point x="193" y="555"/>
			<point x="265" y="555" type="curve" smooth="yes"/>
			<point x="335" y="555"/>
			<point x="390" y="520"/>
			<point x="415" y="462" type="curve"/>
		</contour>
	</outline>
</glyph>
<glyph name="u" format="2">
  <advance width="603"/>
  <unicode hex="0075"/>
  <anchor x="265" y="0" name="bottom"/>
  <anchor x="463" y="0" name="ogonek"/>
  <anchor x="302" y="555" name="top"/>
  <anchor x="573" y="555" name="topright"/>
  <outline>
    <contour>
      <point x="463" y="140" type="move"/>
      <point x="423" y="72"/>
      <point x="351" y="0"/>
      <point x="262" y="0" type="curve" smooth="yes"/>
      <point x="185" y="0"/>
      <point x="135" y="53"/>
      <point x="135" y="150" type="curve" smooth="yes"/>
      <point x="135" y="555" type="line"/>
    </contour>
    <contour>
      <point x="463" y="555" type="move"/>
      <point x="463" y="0" type="line"/>
    </contour>
  </outline>
</glyph>
<glyph name="v" format="2">
  <advance width="539"/>
  <unicode hex="0076"/>
  <outline>
    <contour>
      <point x="60" y="555" type="move"/>
      <point x="269" y="5" type="line"/>
      <point x="273" y="5" type="line"/>
      <point x="479" y="555" type="line"/>
    </contour>
  </outline>
</glyph>
<glyph name="w" format="2">
  <advance width="817"/>
  <unicode hex="0077"/>
  <anchor x="409" y="0" name="bottom"/>
  <anchor x="409" y="555" name="top"/>
  <outline>
    <contour>
      <point x="70" y="555" type="move"/>
      <point x="237" y="5" type="line"/>
      <point x="241" y="5" type="line"/>
      <point x="408" y="545" type="line"/>
      <point x="412" y="545" type="line"/>
      <point x="584" y="5" type="line"/>
      <point x="588" y="5" type="line"/>
      <point x="747" y="555" type="line"/>
    </contour>
  </outline>
</glyph>
<glyph name="x" format="2">
	<advance width="540"/>
	<unicode hex="0078"/>
	<outline>
		<contour>
			<point x="70" y="0" type="move"/>
			<point x="458" y="555" type="line"/>
		</contour>
		<contour>
			<point x="470" y="0" type="move"/>
			<point x="95" y="555" type="line"/>
		</contour>
	</outline>
</glyph>
<glyph name="y" format="2">
  <advance width="549"/>
  <unicode hex="0079"/>
  <anchor x="274" y="-16" name="bottom"/>
  <anchor x="274" y="555" name="top"/>
  <outline>
    <contour>
      <point x="281" y="0" type="move"/>
      <point x="70" y="555" type="line"/>
    </contour>
    <contour>
      <point x="100" y="-175" type="move"/>
      <point x="116" y="-185"/>
      <point x="133" y="-190"/>
      <point x="150" y="-190" type="curve" smooth="yes"/>
      <point x="209" y="-190"/>
      <point x="239" y="-131"/>
      <point x="277" y="-17" type="curve"/>
      <point x="489" y="555" type="line"/>
    </contour>
  </outline>
</glyph>
<glyph name="z" format="2">
	<advance width="530"/>
	<unicode hex="007A"/>
	<anchor x="265" y="0" name="bottom"/>
	<anchor x="265" y="280" name="center"/>
	<anchor x="259" y="555" name="top"/>
	<outline>
		<contour>
			<point x="450" y="10" type="move"/>
			<point x="90" y="10" type="line"/>
			<point x="90" y="14" type="line"/>
			<point x="435" y="541" type="line"/>
			<point x="435" y="545" type="line"/>
			<point x="93" y="545" type="line"/>
		</contour>
	</outline>
</glyph>
<glyph name="braceleft" format="2">
  <advance width="381"/>
  <unicode hex="007B"/>
  <outline>
    <contour>
      <point x="331" y="-124" type="move"/>
      <point x="299" y="-124" type="line" smooth="yes"/>
      <point x="245" y="-124"/>
      <point x="205" y="-99"/>
      <point x="209" y="-25" type="curve" smooth="yes"/>
      <point x="219" y="141" type="line" smooth="yes"/>
      <point x="225" y="235"/>
      <point x="182" y="253"/>
      <point x="116" y="253" type="curve" smooth="yes"/>
      <point x="100" y="253" type="line"/>
      <point x="100" y="337" type="line"/>
      <point x="116" y="337" type="line" smooth="yes"/>
      <point x="182" y="337"/>
      <point x="225" y="355"/>
      <point x="219" y="449" type="curve" smooth="yes"/>
      <point x="209" y="615" type="line" smooth="yes"/>
      <point x="205" y="689"/>
      <point x="245" y="714"/>
      <point x="299" y="714" type="curve" smooth="yes"/>
      <point x="331" y="714" type="line"/>
    </contour>
  </outline>
</glyph>
<glyph name="bar" format="2">
	<advance width="280"/>
	<unicode hex="007C"/>
	<outline>
		<contour>
			<point x="140" y="-190" type="move"/>
			<point x="140" y="745" type="line"/>
		</contour>
	</outline>
</glyph>
<glyph name="asciitilde" format="2">
  <advance width="645"/>
  <unicode hex="007E"/>
  <outline>
    <contour>
      <point x="100" y="284" type="move"/>
      <point x="136" y="340"/>
      <point x="179" y="356"/>
      <point x="219" y="356" type="curve" smooth="yes"/>
      <point x="294" y="356"/>
      <point x="342" y="284"/>
      <point x="427" y="284" type="curve" smooth="yes"/>
      <point x="467" y="284"/>
      <point x="509" y="298"/>
      <point x="545" y="354" type="curve" smooth="yes"/>
    </contour>
  </outline>
</glyph>
<glyph name="cent" format="2">
  <advance width="531"/>
  <unicode hex="00A2"/>
  <outline>
    <contour>
      <point x="293" y="-138" type="move"/>
      <point x="293" y="0" type="line"/>
    </contour>
    <contour>
      <point x="293" y="555" type="move"/>
      <point x="293" y="693" type="line"/>
    </contour>
    <component base="c"/>
  </outline>
</glyph>
<glyph name="currency" format="2">
  <advance width="660"/>
  <unicode hex="00A4"/>
  <guideline x="225" y="-64" angle="0"/>
  <guideline x="48" y="293" angle="0"/>
  <guideline x="48" y="449" angle="0"/>
  <outline>
    <contour>
      <point x="102" y="112" type="move"/>
      <point x="188" y="199" type="line"/>
    </contour>
    <contour>
      <point x="187" y="482" type="move"/>
      <point x="100" y="569" type="line"/>
    </contour>
    <contour>
      <point x="559" y="112" type="move"/>
      <point x="470" y="198" type="line"/>
    </contour>
    <contour>
      <point x="329" y="541" type="move"/>
      <point x="218" y="541"/>
      <point x="130" y="452"/>
      <point x="130" y="341" type="curve" smooth="yes"/>
      <point x="130" y="229"/>
      <point x="219" y="140"/>
      <point x="330" y="140" type="curve" smooth="yes"/>
      <point x="440" y="140"/>
      <point x="530" y="229"/>
      <point x="530" y="341" type="curve" smooth="yes"/>
      <point x="530" y="452"/>
      <point x="441" y="541"/>
      <point x="331" y="541" type="curve"/>
    </contour>
    <contour>
      <point x="471" y="482" type="move"/>
      <point x="560" y="569" type="line"/>
    </contour>
  </outline>
</glyph>
<glyph name="yen" format="2">
  <advance width="524"/>
  <unicode hex="00A5"/>
  <outline>
    <contour>
      <point x="262" y="0" type="move"/>
      <point x="262" y="314" type="line"/>
    </contour>
    <contour>
      <point x="96" y="163" type="move"/>
      <point x="428" y="163" type="line"/>
    </contour>
    <contour>
      <point x="96" y="314" type="move"/>
      <point x="428" y="314" type="line"/>
    </contour>
    <contour>
      <point x="50" y="680" type="move"/>
      <point x="262" y="314" type="line"/>
      <point x="474" y="680" type="line"/>
    </contour>
  </outline>
</glyph>
<glyph name="brokenbar" format="2">
	<advance width="280"/>
	<unicode hex="00A6"/>
	<outline>
		<contour>
			<point x="140" y="-190" type="move"/>
			<point x="140" y="128" type="line"/>
		</contour>
		<contour>
			<point x="140" y="427" type="move"/>
			<point x="140" y="745" type="line"/>
		</contour>
	</outline>
</glyph>
<glyph name="section" format="2">
  <advance width="552"/>
  <unicode hex="00A7"/>
  <outline>
    <contour>
      <point x="110" y="-4" type="move"/>
      <point x="130" y="-65"/>
      <point x="195" y="-125"/>
      <point x="284" y="-125" type="curve" smooth="yes"/>
      <point x="372" y="-125"/>
      <point x="439" y="-66"/>
      <point x="439" y="10" type="curve" smooth="yes"/>
      <point x="439" y="175"/>
      <point x="125" y="148"/>
      <point x="125" y="294" type="curve" smooth="yes"/>
      <point x="125" y="358"/>
      <point x="187" y="406"/>
      <point x="270" y="423" type="curve"/>
    </contour>
    <contour>
      <point x="323" y="143" type="move"/>
      <point x="374" y="165"/>
      <point x="442" y="203"/>
      <point x="442" y="271" type="curve" smooth="yes"/>
      <point x="442" y="417"/>
      <point x="135" y="409"/>
      <point x="135" y="558" type="curve" smooth="yes"/>
      <point x="135" y="618"/>
      <point x="185" y="680"/>
      <point x="283" y="680" type="curve" smooth="yes"/>
      <point x="350" y="680"/>
      <point x="399" y="651"/>
      <point x="428" y="595" type="curve"/>
    </contour>
  </outline>
</glyph>
<glyph name="dieresis" format="2">
  <advance width="164"/>
  <unicode hex="00A8"/>
  <anchor x="82" y="555" name="_top"/>
  <anchor x="82" y="777" name="top"/>
  <outline>
    <contour>
      <point x="12" y="650" type="move"/>
      <point x="12" y="780" type="line"/>
    </contour>
    <contour>
      <point x="154" y="650" type="move"/>
      <point x="154" y="780" type="line"/>
    </contour>
  </outline>
</glyph>
<glyph name="logicalnot" format="2">
  <advance width="664"/>
  <unicode hex="00AC"/>
  <outline>
    <contour>
      <point x="564" y="140" type="move"/>
      <point x="564" y="365" type="line"/>
      <point x="100" y="365" type="line"/>
    </contour>
  </outline>
</glyph>
<glyph name="registered" format="2">
  <advance width="862"/>
  <unicode hex="00AE"/>
  <outline>
    <contour>
      <point x="432" y="680" type="move"/>
      <point x="243" y="680"/>
      <point x="95" y="528"/>
      <point x="95" y="340" type="curve" smooth="yes"/>
      <point x="95" y="153"/>
      <point x="243" y="0"/>
      <point x="431" y="0" type="curve" smooth="yes"/>
      <point x="617" y="0"/>
      <point x="767" y="153"/>
      <point x="767" y="340" type="curve" smooth="yes"/>
      <point x="767" y="528"/>
      <point x="617" y="680"/>
      <point x="430" y="680" type="curve"/>
    </contour>
    <component base="R" xScale="0.62" yScale="0.57" xOffset="247" yOffset="146"/>
  </outline>
</glyph>
<glyph name="macron" format="2">
	<advance width="241"/>
	<unicode hex="00AF"/>
	<anchor x="121" y="555" name="_top"/>
	<anchor x="121" y="704" name="top"/>
	<outline>
		<contour>
			<point x="231" y="703" type="move"/>
			<point x="10" y="703" type="line"/>
			<point x="10" y="704" type="line"/>
		</contour>
	</outline>
</glyph>
<glyph name="degree" format="2">
  <advance width="309"/>
  <unicode hex="00B0"/>
  <outline>
    <contour>
      <point x="153" y="680" type="move"/>
      <point x="91" y="680"/>
      <point x="40" y="628"/>
      <point x="40" y="565" type="curve" smooth="yes"/>
      <point x="40" y="502"/>
      <point x="92" y="451"/>
      <point x="154" y="451" type="curve" smooth="yes"/>
      <point x="217" y="451"/>
      <point x="269" y="502"/>
      <point x="269" y="565" type="curve" smooth="yes"/>
      <point x="269" y="628"/>
      <point x="218" y="680"/>
      <point x="155" y="680" type="curve"/>
    </contour>
  </outline>
</glyph>
<glyph name="plusminus" format="2">
  <advance width="665"/>
  <unicode hex="00B1"/>
  <outline>
    <contour>
      <point x="100" y="0" type="move"/>
      <point x="565" y="0" type="line"/>
    </contour>
    <component base="plus" yScale="0.8" xOffset="15" yOffset="76"/>
  </outline>
</glyph>
<glyph name="acute" format="2">
  <advance width="147"/>
  <unicode hex="00B4"/>
  <anchor x="74" y="555" name="_top"/>
  <outline>
    <contour>
      <point x="10" y="657" type="move"/>
      <point x="137" y="782" type="line"/>
    </contour>
  </outline>
</glyph>
<glyph name="uni00B5" format="2">
	<advance width="608"/>
	<unicode hex="00B5"/>
	<outline>
		<contour>
			<point x="140" y="-188" type="move"/>
			<point x="140" y="135" type="line"/>
		</contour>
		<component base="u" xOffset="5"/>
	</outline>
</glyph>
<glyph name="paragraph" format="2">
  <advance width="582"/>
  <unicode hex="00B6"/>
  <outline>
    <contour>
      <point x="442" y="-118" type="move"/>
      <point x="442" y="670" type="line"/>
      <point x="283" y="670" type="line" smooth="yes"/>
      <point x="137" y="670"/>
      <point x="60" y="593"/>
      <point x="60" y="482" type="curve" smooth="yes"/>
      <point x="60" y="362"/>
      <point x="149" y="284"/>
      <point x="267" y="284" type="curve"/>
    </contour>
    <contour>
      <point x="319" y="-118" type="move"/>
      <point x="319" y="626" type="line"/>
    </contour>
  </outline>
</glyph>
<glyph name="AE" format="2">
	<advance width="919"/>
	<unicode hex="00C6"/>
	<outline>
		<contour>
			<point x="182" y="213" type="move"/>
			<point x="488" y="213" type="line"/>
		</contour>
		<contour>
			<point x="45" y="0" type="move"/>
			<point x="474" y="670" type="line"/>
			<point x="488" y="670" type="line"/>
		</contour>
		<contour>
			<point x="829" y="10" type="move"/>
			<point x="488" y="10" type="line"/>
			<point x="488" y="670" type="line"/>
			<point x="829" y="670" type="line"/>
		</contour>
		<contour>
			<point x="488" y="356" type="move"/>
			<point x="812" y="356" type="line"/>
		</contour>
	</outline>
</glyph>
<glyph name="Eth" format="2">
	<advance width="713"/>
	<unicode hex="00D0"/>
	<outline>
		<contour>
			<point x="45" y="357" type="move"/>
			<point x="387" y="357" type="line"/>
		</contour>
		<component base="D" xOffset="20"/>
	</outline>
</glyph>
<glyph name="multiply" format="2">
	<advance width="540"/>
	<unicode hex="00D7"/>
	<outline>
		<contour>
			<point x="460" y="132" type="move"/>
			<point x="80" y="532" type="line"/>
		</contour>
		<contour>
			<point x="80" y="133" type="move"/>
			<point x="460" y="533" type="line"/>
		</contour>
	</outline>
</glyph>
<glyph name="Oslash" format="2">
  <advance width="716"/>
  <unicode hex="00D8"/>
  <outline>
    <contour>
      <point x="124" y="-20" type="move"/>
      <point x="603" y="700" type="line"/>
    </contour>
    <component base="O"/>
  </outline>
</glyph>
<glyph name="Thorn" format="2">
	<advance width="584"/>
	<unicode hex="00DE"/>
	<outline>
		<contour>
			<point x="140" y="0" type="move"/>
			<point x="140" y="680" type="line"/>
		</contour>
		<contour>
			<point x="140" y="177" type="move"/>
			<point x="302" y="177" type="line" smooth="yes"/>
			<point x="468" y="177"/>
			<point x="524" y="250"/>
			<point x="524" y="348" type="curve" smooth="yes"/>
			<point x="524" y="447"/>
			<point x="462" y="513"/>
			<point x="320" y="513" type="curve" smooth="yes"/>
			<point x="140" y="513" type="line"/>
		</contour>
	</outline>
</glyph>
<glyph name="germandbls" format="2">
	<advance width="594"/>
	<unicode hex="00DF"/>
	<outline>
		<contour>
			<point x="250" y="24" type="move" smooth="yes"/>
			<point x="273" y="11"/>
			<point x="304" y="0"/>
			<point x="341" y="0" type="curve" smooth="yes"/>
			<point x="445" y="0"/>
			<point x="509" y="85"/>
			<point x="509" y="194" type="curve" smooth="yes"/>
			<point x="509" y="317"/>
			<point x="426" y="406"/>
			<point x="302" y="406" type="curve"/>
		</contour>
		<contour>
			<point x="261" y="406" type="move"/>
			<point x="302" y="406" type="line" smooth="yes"/>
			<point x="418" y="406"/>
			<point x="469" y="494"/>
			<point x="469" y="582" type="curve" smooth="yes"/>
			<point x="469" y="670"/>
			<point x="417" y="745"/>
			<point x="309" y="745" type="curve" smooth="yes"/>
			<point x="200" y="745"/>
			<point x="140" y="668"/>
			<point x="140" y="529" type="curve" smooth="yes"/>
			<point x="140" y="0" type="line"/>
		</contour>
	</outline>
</glyph>
<glyph name="ae" format="2">
  <advance width="908"/>
  <unicode hex="00E6"/>
  <guideline x="861" y="-64" angle="0"/>
  <guideline x="118" y="-64" angle="0"/>
  <outline>
    <contour>
      <point x="450" y="138" type="move"/>
      <point x="389" y="49"/>
      <point x="321" y="0"/>
      <point x="233" y="0" type="curve" smooth="yes"/>
      <point x="135" y="0"/>
      <point x="90" y="68"/>
      <point x="90" y="138" type="curve" smooth="yes"/>
      <point x="90" y="248"/>
      <point x="166" y="308"/>
      <point x="374" y="308" type="curve" smooth="yes"/>
      <point x="437" y="308" type="line"/>
      <point x="437" y="378" type="line"/>
      <point x="436" y="475"/>
      <point x="402" y="555"/>
      <point x="283" y="555" type="curve" smooth="yes"/>
      <point x="195" y="555"/>
      <point x="145" y="516"/>
      <point x="115" y="440" type="curve"/>
    </contour>
    <component base="e" xOffset="347" yOffset="3"/>
  </outline>
</glyph>
<glyph name="eth" format="2">
	<advance width="592"/>
	<unicode hex="00F0"/>
	<outline>
		<contour>
			<point x="222" y="503" type="move"/>
			<point x="446" y="612" type="line"/>
		</contour>
		<component base="six" xScale="-1" xOffset="602"/>
	</outline>
</glyph>
<glyph name="oslash" format="2">
  <advance width="592"/>
  <unicode hex="00F8"/>
  <outline>
    <contour>
      <point x="113" y="-20" type="move"/>
      <point x="480" y="575" type="line"/>
    </contour>
    <component base="o"/>
  </outline>
</glyph>
<glyph name="thorn" format="2">
  <advance width="613"/>
  <unicode hex="00FE"/>
  <outline>
    <contour>
      <point x="140" y="-190" type="move"/>
      <point x="140" y="745" type="line"/>
    </contour>
    <component base="_module_rond" xOffset="140"/>
  </outline>
</glyph>
<glyph name="dcroat" format="2">
  <advance width="610"/>
  <unicode hex="0111"/>
  <outline>
    <contour>
      <point x="565" y="644" type="move"/>
      <point x="337" y="644" type="line"/>
    </contour>
    <component base="d"/>
  </outline>
</glyph>
<glyph name="Hbar" format="2">
	<advance width="706"/>
	<unicode hex="0126"/>
	<outline>
		<contour>
			<point x="40" y="528" type="move"/>
			<point x="666" y="528" type="line"/>
		</contour>
		<component base="H"/>
	</outline>
</glyph>
<glyph name="dotlessi" format="2">
	<advance width="280"/>
	<unicode hex="0131"/>
	<anchor x="140" y="0" name="bottom"/>
	<anchor x="140" y="0" name="ogonek"/>
	<anchor x="140" y="555" name="top"/>
	<outline>
		<contour>
			<point x="140" y="0" type="move"/>
			<point x="140" y="555" type="line"/>
		</contour>
	</outline>
</glyph>
<glyph name="Lslash" format="2">
  <advance width="523"/>
  <unicode hex="0141"/>
  <outline>
    <contour>
      <point x="50" y="297" type="move"/>
      <point x="352" y="397" type="line"/>
    </contour>
    <component base="L" xOffset="15"/>
  </outline>
</glyph>
<glyph name="lslash" format="2">
	<advance width="307"/>
	<unicode hex="0142"/>
	<outline>
		<contour>
			<point x="35" y="327" type="move"/>
			<point x="257" y="407" type="line"/>
		</contour>
		<component base="l"/>
	</outline>
</glyph>
<glyph name="Eng" format="2">
  <advance width="740"/>
  <unicode hex="014A"/>
  <outline>
    <contour>
      <point x="442" y="-163" type="move"/>
      <point x="457" y="-177"/>
      <point x="481" y="-188"/>
      <point x="514" y="-188" type="curve" smooth="yes"/>
      <point x="577" y="-188"/>
      <point x="600" y="-150"/>
      <point x="600" y="-81" type="curve" smooth="yes"/>
      <point x="600" y="0" type="line"/>
    </contour>
    <component base="N"/>
  </outline>
</glyph>
<glyph name="eng" format="2">
  <advance width="608"/>
  <unicode hex="014B"/>
  <outline>
    <contour>
      <point x="315" y="-163" type="move"/>
      <point x="330" y="-177"/>
      <point x="354" y="-188"/>
      <point x="387" y="-188" type="curve" smooth="yes"/>
      <point x="450" y="-188"/>
      <point x="473" y="-150"/>
      <point x="473" y="-81" type="curve" smooth="yes"/>
      <point x="473" y="0" type="line"/>
    </contour>
    <component base="n"/>
  </outline>
</glyph>
<glyph name="OE" format="2">
  <advance width="907"/>
  <unicode hex="0152"/>
  <outline>
    <contour>
      <point x="476" y="10" type="move"/>
      <point x="437" y="4"/>
      <point x="396" y="0"/>
      <point x="353" y="0" type="curve" smooth="yes"/>
      <point x="137" y="0"/>
      <point x="95" y="207"/>
      <point x="95" y="341" type="curve" smooth="yes"/>
      <point x="95" y="501"/>
      <point x="158" y="680"/>
      <point x="352" y="680" type="curve"/>
    </contour>
    <contour>
      <point x="817" y="10" type="move"/>
      <point x="476" y="10" type="line"/>
      <point x="476" y="670" type="line"/>
      <point x="817" y="670" type="line"/>
    </contour>
    <contour>
      <point x="476" y="356" type="move"/>
      <point x="800" y="356" type="line"/>
    </contour>
    <contour>
      <point x="476" y="670" type="move"/>
      <point x="438" y="676"/>
      <point x="399" y="680"/>
      <point x="354" y="680" type="curve"/>
    </contour>
  </outline>
</glyph>
<glyph name="tbar" format="2">
	<advance width="387"/>
	<unicode hex="0167"/>
	<outline>
		<contour>
			<point x="50" y="311" type="move"/>
			<point x="313" y="311" type="line"/>
		</contour>
		<component base="t"/>
	</outline>
</glyph>
<glyph name="uni018F" format="2">
  <advance width="658"/>
  <unicode hex="018F"/>
  <outline>
    <contour>
      <point x="561" y="303" type="move"/>
      <point x="90" y="303" type="line"/>
      <point x="90" y="169"/>
      <point x="135" y="0"/>
      <point x="313" y="0" type="curve" smooth="yes"/>
      <point x="466" y="0"/>
      <point x="563" y="127"/>
      <point x="563" y="343" type="curve" smooth="yes"/>
      <point x="563" y="538"/>
      <point x="485" y="680"/>
      <point x="309" y="680" type="curve" smooth="yes"/>
      <point x="194" y="680"/>
      <point x="130" y="618"/>
      <point x="100" y="545" type="curve" smooth="yes"/>
    </contour>
  </outline>
</glyph>
<glyph name="florin" format="2">
	<advance width="549"/>
	<unicode hex="0192"/>
	<outline>
		<contour>
			<point x="30" y="-109" type="move"/>
			<point x="44" y="-119"/>
			<point x="66" y="-125"/>
			<point x="91" y="-125" type="curve" smooth="yes"/>
			<point x="136" y="-125"/>
			<point x="180" y="-104"/>
			<point x="199" y="-20" type="curve" smooth="yes"/>
			<point x="332" y="575" type="line" smooth="yes"/>
			<point x="351" y="659"/>
			<point x="398" y="680"/>
			<point x="452" y="680" type="curve" smooth="yes"/>
			<point x="481" y="680"/>
			<point x="499" y="673"/>
			<point x="519" y="660" type="curve"/>
		</contour>
		<contour>
			<point x="164" y="383" type="move"/>
			<point x="416" y="383" type="line"/>
		</contour>
	</outline>
</glyph>
<glyph name="uni021A" format="2">
	<advance width="520"/>
	<unicode hex="021A"/>
	<anchor x="260" y="0" name="_bottom"/>
	<anchor x="250" y="-252" name="bottom"/>
	<outline>
		<contour>
			<point x="181" y="-222" type="move"/>
			<point x="259" y="-67" type="line"/>
		</contour>
		<component base="T"/>
	</outline>
</glyph>
<glyph name="uni0237" format="2">
	<advance width="293"/>
	<unicode hex="0237"/>
	<anchor x="147" y="-190" name="bottom"/>
	<anchor x="158" y="555" name="top"/>
	<outline>
		<contour>
			<point x="0" y="-165" type="move"/>
			<point x="15" y="-179"/>
			<point x="39" y="-190"/>
			<point x="72" y="-190" type="curve" smooth="yes"/>
			<point x="135" y="-190"/>
			<point x="158" y="-152"/>
			<point x="158" y="-83" type="curve" smooth="yes"/>
			<point x="158" y="555" type="line"/>
		</contour>
	</outline>
</glyph>
<glyph name="breve" format="2">
  <advance width="260"/>
  <unicode hex="02D8"/>
  <anchor x="130" y="555" name="_top"/>
  <anchor x="130" y="762" name="top"/>
  <outline>
    <contour>
      <point x="10" y="762" type="move"/>
      <point x="10" y="707"/>
      <point x="62" y="680"/>
      <point x="128" y="680" type="curve" smooth="yes"/>
      <point x="194" y="680"/>
      <point x="250" y="706"/>
      <point x="250" y="761" type="curve" smooth="yes"/>
    </contour>
  </outline>
</glyph>
<glyph name="dotaccent" format="2">
  <advance width="82"/>
  <unicode hex="02D9"/>
  <anchor x="42" y="555" name="_top"/>
  <anchor x="42" y="745" name="top"/>
  <outline>
    <contour>
      <point x="42" y="650" type="move"/>
      <point x="42" y="780" type="line"/>
    </contour>
    <contour>
      <point x="43" y="780" type="move"/>
      <point x="41" y="780" type="line"/>
    </contour>
  </outline>
</glyph>
<glyph name="ring" format="2">
  <advance width="167"/>
  <unicode hex="02DA"/>
  <anchor x="84" y="555" name="_top"/>
  <anchor x="84" y="791" name="top"/>
  <outline>
    <contour>
      <point x="83" y="791" type="move"/>
      <point x="42" y="791"/>
      <point x="10" y="758"/>
      <point x="10" y="718" type="curve" smooth="yes"/>
      <point x="10" y="678"/>
      <point x="43" y="645"/>
      <point x="83" y="645" type="curve" smooth="yes"/>
      <point x="124" y="645"/>
      <point x="157" y="678"/>
      <point x="157" y="718" type="curve" smooth="yes"/>
      <point x="157" y="758"/>
      <point x="124" y="791"/>
      <point x="83" y="791" type="curve"/>
    </contour>
  </outline>
</glyph>
<glyph name="ogonek" format="2">
	<advance width="159"/>
	<unicode hex="02DB"/>
	<anchor x="108" y="0" name="_ogonek"/>
	<outline>
		<contour>
			<point x="149" y="-184" type="move" smooth="yes"/>
			<point x="136" y="-192"/>
			<point x="111" y="-200"/>
			<point x="87" y="-200" type="curve" smooth="yes"/>
			<point x="37" y="-200"/>
			<point x="10" y="-175"/>
			<point x="10" y="-130" type="curve" smooth="yes"/>
			<point x="10" y="-87"/>
			<point x="61" y="-38"/>
			<point x="108" y="0" type="curve"/>
		</contour>
	</outline>
</glyph>
<glyph name="tilde" format="2">
	<advance width="298"/>
	<unicode hex="02DC"/>
	<anchor x="146" y="555" name="_top"/>
	<outline>
		<contour>
			<point x="10" y="667" type="move"/>
			<point x="32" y="704"/>
			<point x="59" y="715"/>
			<point x="84" y="715" type="curve" smooth="yes"/>
			<point x="131" y="715"/>
			<point x="161" y="667"/>
			<point x="214" y="667" type="curve" smooth="yes"/>
			<point x="239" y="667"/>
			<point x="265" y="676"/>
			<point x="288" y="714" type="curve"/>
		</contour>
	</outline>
</glyph>
<glyph name="hungarumlaut" format="2">
	<advance width="294"/>
	<unicode hex="02DD"/>
	<anchor x="137" y="555" name="_top"/>
	<anchor x="147" y="782" name="top"/>
	<outline>
		<contour>
			<point x="10" y="657" type="move"/>
			<point x="137" y="782" type="line"/>
		</contour>
		<contour>
			<point x="157" y="657" type="move"/>
			<point x="284" y="782" type="line"/>
		</contour>
	</outline>
</glyph>
<glyph name="gravecomb" format="2">
  <advance width="0"/>
  <unicode hex="0300"/>
  <anchor x="78" y="555" name="_top"/>
  <anchor x="78" y="791" name="top"/>
  <outline>
    <contour>
      <point x="10" y="791" type="move"/>
      <point x="145" y="658" type="line"/>
    </contour>
  </outline>
</glyph>
<glyph name="acutecomb" format="2">
  <advance width="0"/>
  <unicode hex="0301"/>
  <anchor x="78" y="555" name="_top"/>
  <anchor x="78" y="790" name="top"/>
  <outline>
    <contour>
      <point x="10" y="657" type="move"/>
      <point x="145" y="790" type="line"/>
    </contour>
  </outline>
</glyph>
<glyph name="uni0302" format="2">
  <advance width="0"/>
  <unicode hex="0302"/>
  <anchor x="121" y="555" name="_top"/>
  <outline>
    <contour>
      <point x="232" y="648" type="move"/>
      <point x="123" y="774" type="line"/>
      <point x="119" y="774" type="line"/>
      <point x="10" y="648" type="line"/>
    </contour>
  </outline>
</glyph>
<glyph name="tildecomb" format="2">
  <advance width="0"/>
  <unicode hex="0303"/>
  <anchor x="149" y="555" name="_top"/>
  <anchor x="149" y="735" name="top"/>
  <outline>
    <contour>
      <point x="10" y="687" type="move"/>
      <point x="32" y="724"/>
      <point x="59" y="735"/>
      <point x="84" y="735" type="curve" smooth="yes"/>
      <point x="131" y="735"/>
      <point x="161" y="687"/>
      <point x="214" y="687" type="curve" smooth="yes"/>
      <point x="239" y="687"/>
      <point x="265" y="696"/>
      <point x="288" y="734" type="curve"/>
    </contour>
  </outline>
</glyph>
<glyph name="uni0304" format="2">
	<advance width="0"/>
	<unicode hex="0304"/>
	<anchor x="121" y="555" name="_top"/>
	<anchor x="121" y="703" name="top"/>
	<outline>
		<contour>
			<point x="231" y="703" type="move"/>
			<point x="10" y="703" type="line"/>
		</contour>
	</outline>
</glyph>
<glyph name="uni0306" format="2">
  <advance width="0"/>
  <unicode hex="0306"/>
  <anchor x="130" y="555" name="_top"/>
  <anchor x="130" y="762" name="top"/>
  <outline>
    <contour>
      <point x="10" y="762" type="move"/>
      <point x="10" y="707"/>
      <point x="62" y="680"/>
      <point x="128" y="680" type="curve" smooth="yes"/>
      <point x="194" y="680"/>
      <point x="250" y="706"/>
      <point x="250" y="761" type="curve" smooth="yes"/>
    </contour>
  </outline>
</glyph>
<glyph name="uni0307" format="2">
  <advance width="0"/>
  <unicode hex="0307"/>
  <anchor x="40" y="555" name="_top"/>
  <anchor x="40" y="745" name="top"/>
  <outline>
    <contour>
      <point x="40" y="678" type="move"/>
      <point x="40" y="785" type="line"/>
    </contour>
    <contour>
      <point x="41" y="785" type="move"/>
      <point x="39" y="785" type="line"/>
    </contour>
  </outline>
</glyph>
<glyph name="uni0308" format="2">
  <advance width="0"/>
  <unicode hex="0308"/>
  <anchor x="81" y="555" name="_top"/>
  <anchor x="81" y="745" name="top"/>
  <outline>
    <contour>
      <point x="10" y="660" type="move"/>
      <point x="10" y="785" type="line"/>
    </contour>
    <contour>
      <point x="152" y="660" type="move"/>
      <point x="152" y="785" type="line"/>
    </contour>
  </outline>
</glyph>
<glyph name="uni0326" format="2">
	<advance width="0"/>
	<unicode hex="0326"/>
	<anchor x="59" y="0" name="_bottom"/>
	<outline>
		<contour>
			<point x="10" y="-240" type="move"/>
			<point x="88" y="-85" type="line"/>
		</contour>
	</outline>
</glyph>
<glyph name="uni0327" format="2">
  <advance width="0"/>
  <unicode hex="0327"/>
  <anchor x="90" y="0" name="_bottom"/>
  <outline>
    <contour>
      <point x="10" y="-177" type="move"/>
      <point x="23" y="-184"/>
      <point x="42" y="-191"/>
      <point x="71" y="-191" type="curve" smooth="yes"/>
      <point x="123" y="-191"/>
      <point x="155" y="-168"/>
      <point x="155" y="-132" type="curve" smooth="yes"/>
      <point x="155" y="-95"/>
      <point x="124" y="-78"/>
      <point x="70" y="-78" type="curve" smooth="yes"/>
      <point x="44" y="-78" type="line"/>
      <point x="90" y="0" type="line"/>
    </contour>
  </outline>
</glyph>
<glyph name="uni0328" format="2">
  <advance width="0"/>
  <unicode hex="0328"/>
  <anchor x="108" y="0" name="_ogonek"/>
  <outline>
    <contour>
      <point x="149" y="-184" type="move"/>
      <point x="136" y="-192"/>
      <point x="111" y="-200"/>
      <point x="87" y="-200" type="curve" smooth="yes"/>
      <point x="37" y="-200"/>
      <point x="10" y="-175"/>
      <point x="10" y="-130" type="curve" smooth="yes"/>
      <point x="10" y="-87"/>
      <point x="61" y="-38"/>
      <point x="108" y="0" type="curve"/>
    </contour>
  </outline>
</glyph>
<glyph name="Delta" format="2">
	<advance width="700"/>
	<unicode hex="03B4"/>
	<outline>
		<contour>
			<point x="100" y="18" type="move"/>
			<point x="100" y="10" type="line"/>
			<point x="600" y="10" type="line"/>
			<point x="600" y="20" type="line"/>
			<point x="355" y="675" type="line"/>
			<point x="345" y="675" type="line"/>
			<point x="100" y="20" type="line"/>
		</contour>
	</outline>
</glyph>
<glyph name="pi" format="2">
	<advance width="644"/>
	<unicode hex="03C0"/>
	<outline>
		<contour>
			<point x="181" y="0" type="move"/>
			<point x="181" y="545" type="line"/>
		</contour>
		<contour>
			<point x="560" y="4" type="move" smooth="yes"/>
			<point x="553" y="2"/>
			<point x="542" y="0"/>
			<point x="529" y="0" type="curve" smooth="yes"/>
			<point x="472" y="0"/>
			<point x="443" y="35"/>
			<point x="443" y="107" type="curve" smooth="yes"/>
			<point x="443" y="545" type="line"/>
		</contour>
		<contour>
			<point x="564" y="545" type="move"/>
			<point x="70" y="545" type="line"/>
		</contour>
	</outline>
</glyph>
<glyph name="Omega" format="2">
	<advance width="743"/>
	<unicode hex="03C9"/>
	<outline>
		<contour>
			<point x="643" y="10" type="move"/>
			<point x="468" y="10" type="line"/>
			<point x="468" y="32" type="line"/>
			<point x="545" y="103"/>
			<point x="620" y="212"/>
			<point x="620" y="367" type="curve" smooth="yes"/>
			<point x="620" y="548"/>
			<point x="520" y="680"/>
			<point x="372" y="680" type="curve" smooth="yes"/>
			<point x="224" y="680"/>
			<point x="126" y="548"/>
			<point x="126" y="367" type="curve" smooth="yes"/>
			<point x="126" y="212"/>
			<point x="198" y="103"/>
			<point x="275" y="32" type="curve"/>
			<point x="275" y="10" type="line"/>
			<point x="100" y="10" type="line"/>
		</contour>
	</outline>
</glyph>
<glyph name="uni1E9E" format="2">
	<advance width="624"/>
	<unicode hex="1E9E"/>
	<outline>
		<contour>
			<point x="260" y="24" type="move"/>
			<point x="283" y="11"/>
			<point x="318" y="0"/>
			<point x="361" y="0" type="curve" smooth="yes"/>
			<point x="472" y="0"/>
			<point x="554" y="74"/>
			<point x="554" y="186" type="curve" smooth="yes"/>
			<point x="554" y="311"/>
			<point x="453" y="388"/>
			<point x="347" y="401" type="curve"/>
			<point x="511" y="666" type="line"/>
			<point x="511" y="670" type="line"/>
			<point x="140" y="670" type="line"/>
			<point x="140" y="0" type="line"/>
		</contour>
	</outline>
</glyph>
<glyph name="endash" format="2">
	<advance width="612"/>
	<unicode hex="2013"/>
	<outline>
		<contour>
			<point x="60" y="278" type="move"/>
			<point x="552" y="278" type="line"/>
		</contour>
	</outline>
</glyph>
<glyph name="emdash" format="2">
	<advance width="886"/>
	<unicode hex="2014"/>
	<outline>
		<contour>
			<point x="60" y="278" type="move"/>
			<point x="826" y="278" type="line"/>
		</contour>
	</outline>
</glyph>
<glyph name="daggerdbl" format="2">
	<advance width="620"/>
	<unicode hex="2021"/>
	<outline>
		<contour>
			<point x="100" y="116" type="move"/>
			<point x="520" y="116" type="line"/>
		</contour>
		<contour>
			<point x="310" y="-124" type="move"/>
			<point x="310" y="680" type="line"/>
		</contour>
		<contour>
			<point x="100" y="440" type="move"/>
			<point x="520" y="440" type="line"/>
		</contour>
	</outline>
</glyph>
<glyph name="bullet" format="2">
  <advance width="430"/>
  <unicode hex="2022"/>
  <outline>
    <contour>
      <point x="214" y="446" type="move"/>
      <point x="157" y="446"/>
      <point x="110" y="399"/>
      <point x="110" y="341" type="curve" smooth="yes"/>
      <point x="110" y="284"/>
      <point x="157" y="237"/>
      <point x="215" y="237" type="curve" smooth="yes"/>
      <point x="273" y="237"/>
      <point x="320" y="284"/>
      <point x="320" y="341" type="curve" smooth="yes"/>
      <point x="320" y="399"/>
      <point x="273" y="446"/>
      <point x="216" y="446" type="curve"/>
    </contour>
  </outline>
</glyph>
<glyph name="minute" format="2">
	<advance width="141"/>
	<unicode hex="2032"/>
	<outline>
		<contour>
			<point x="71" y="540" type="move"/>
			<point x="71" y="745" type="line"/>
			<point x="70" y="745" type="line"/>
		</contour>
	</outline>
</glyph>
<glyph name="guilsinglleft" format="2">
	<advance width="320"/>
	<unicode hex="2039"/>
	<outline>
		<contour>
			<point x="220" y="77" type="move"/>
			<point x="60" y="276" type="line"/>
			<point x="60" y="286" type="line"/>
			<point x="218" y="485" type="line"/>
		</contour>
	</outline>
</glyph>
<glyph name="uni2042" format="2">
	<advance width="952"/>
	<unicode hex="2042"/>
	<outline>
		<contour>
			<point x="332" y="10" type="move"/>
			<point x="236" y="145" type="line"/>
			<point x="140" y="10" type="line"/>
		</contour>
		<contour>
			<point x="80" y="190" type="move"/>
			<point x="236" y="145" type="line"/>
			<point x="392" y="190" type="line"/>
		</contour>
		<contour>
			<point x="236" y="144" type="move"/>
			<point x="236" y="305" type="line"/>
		</contour>
		<contour>
			<point x="812" y="10" type="move"/>
			<point x="716" y="145" type="line"/>
			<point x="620" y="10" type="line"/>
		</contour>
		<contour>
			<point x="560" y="190" type="move"/>
			<point x="716" y="145" type="line"/>
			<point x="872" y="190" type="line"/>
		</contour>
		<contour>
			<point x="572" y="385" type="move"/>
			<point x="476" y="520" type="line"/>
			<point x="380" y="385" type="line"/>
		</contour>
		<contour>
			<point x="716" y="144" type="move"/>
			<point x="716" y="305" type="line"/>
		</contour>
		<contour>
			<point x="320" y="565" type="move"/>
			<point x="476" y="520" type="line"/>
			<point x="632" y="565" type="line"/>
		</contour>
		<contour>
			<point x="476" y="519" type="move"/>
			<point x="476" y="680" type="line"/>
		</contour>
	</outline>
</glyph>
<glyph name="fraction" format="2">
  <advance width="117"/>
  <unicode hex="2044"/>
  <outline>
    <contour>
      <point x="-120" y="0" type="move"/>
      <point x="237" y="680" type="line"/>
    </contour>
  </outline>
</glyph>
<glyph name="uni20A9" format="2">
  <advance width="910"/>
  <unicode hex="20A9"/>
  <outline>
    <component base="W"/>
    <contour>
      <point x="60" y="230" type="move"/>
      <point x="850" y="230" type="line"/>
    </contour>
    <contour>
      <point x="60" y="390" type="move"/>
      <point x="850" y="390" type="line"/>
    </contour>
  </outline>
</glyph>
<glyph name="uni2113" format="2">
  <advance width="466"/>
  <unicode hex="2113"/>
  <outline>
    <contour>
      <point x="80" y="145" type="move"/>
      <point x="231" y="260"/>
      <point x="354" y="402"/>
      <point x="354" y="555" type="curve" smooth="yes"/>
      <point x="354" y="628"/>
      <point x="326" y="680"/>
      <point x="265" y="680" type="curve" smooth="yes"/>
      <point x="208" y="680"/>
      <point x="164" y="634"/>
      <point x="164" y="486" type="curve" smooth="yes"/>
      <point x="164" y="182" type="line" smooth="yes"/>
      <point x="164" y="65"/>
      <point x="203" y="0"/>
      <point x="282" y="0" type="curve" smooth="yes"/>
      <point x="353" y="0"/>
      <point x="387" y="53"/>
      <point x="396" y="84" type="curve" smooth="yes"/>
    </contour>
  </outline>
</glyph>
<glyph name="trademark" format="2">
	<advance width="873"/>
	<unicode hex="2122"/>
	<outline>
		<contour>
			<point x="177" y="317" type="move"/>
			<point x="177" y="672" type="line"/>
		</contour>
		<contour>
			<point x="40" y="672" type="move"/>
			<point x="314" y="672" type="line"/>
		</contour>
		<contour>
			<point x="773" y="317" type="move"/>
			<point x="773" y="680" type="line"/>
			<point x="770" y="680" type="line"/>
			<point x="597" y="333" type="line"/>
			<point x="594" y="333" type="line"/>
			<point x="421" y="680" type="line"/>
			<point x="418" y="680" type="line"/>
			<point x="418" y="317" type="line"/>
		</contour>
	</outline>
</glyph>
<glyph name="estimated" format="2">
  <advance width="969"/>
  <unicode hex="212E"/>
  <outline>
    <contour>
      <point x="273" y="85" type="move"/>
      <point x="273" y="586" type="line"/>
    </contour>
    <contour>
      <point x="316" y="356" type="move"/>
      <point x="874" y="356" type="line"/>
      <point x="874" y="515"/>
      <point x="758" y="680"/>
      <point x="491" y="680" type="curve" smooth="yes"/>
      <point x="224" y="680"/>
      <point x="95" y="500"/>
      <point x="95" y="331" type="curve" smooth="yes"/>
      <point x="95" y="172"/>
      <point x="224" y="0"/>
      <point x="491" y="0" type="curve" smooth="yes"/>
      <point x="632" y="0"/>
      <point x="742" y="54"/>
      <point x="795" y="118" type="curve" smooth="yes"/>
    </contour>
    <contour>
      <point x="711" y="382" type="move"/>
      <point x="711" y="586" type="line"/>
    </contour>
  </outline>
</glyph>
<glyph name="arrowright" format="2">
  <advance width="919"/>
  <unicode hex="2192"/>
  <outline>
    <contour>
      <point x="807" y="339" type="move"/>
      <point x="110" y="339" type="line"/>
    </contour>
    <contour>
      <point x="525" y="33" type="move"/>
      <point x="809" y="339" type="line"/>
      <point x="525" y="645" type="line"/>
    </contour>
  </outline>
</glyph>
<glyph name="arrowboth" format="2">
  <advance width="1179"/>
  <unicode hex="2194"/>
  <outline>
    <contour>
      <point x="354" y="41" type="move"/>
      <point x="110" y="347" type="line"/>
      <point x="354" y="653" type="line"/>
    </contour>
    <contour>
      <point x="1067" y="347" type="move"/>
      <point x="110" y="347" type="line"/>
    </contour>
    <contour>
      <point x="825" y="41" type="move"/>
      <point x="1069" y="347" type="line"/>
      <point x="825" y="653" type="line"/>
    </contour>
  </outline>
</glyph>
<glyph name="arrowupdn" format="2">
  <advance width="793"/>
  <unicode hex="2195"/>
  <outline>
    <contour>
      <point x="90" y="30" type="move"/>
      <point x="397" y="-214" type="line"/>
      <point x="703" y="30" type="line"/>
    </contour>
    <contour>
      <point x="397" y="-212" type="move"/>
      <point x="397" y="745" type="line"/>
    </contour>
    <contour>
      <point x="703" y="501" type="move"/>
      <point x="397" y="745" type="line"/>
      <point x="90" y="501" type="line"/>
    </contour>
  </outline>
</glyph>
<glyph name="partialdiff" format="2">
	<advance width="564"/>
	<unicode hex="2202"/>
	<outline>
		<contour>
			<point x="444" y="294" type="move" smooth="yes"/>
			<point x="421" y="371"/>
			<point x="356" y="437"/>
			<point x="275" y="437" type="curve" smooth="yes"/>
			<point x="162" y="437"/>
			<point x="100" y="313"/>
			<point x="100" y="194" type="curve" smooth="yes"/>
			<point x="100" y="93"/>
			<point x="145" y="0"/>
			<point x="247" y="0" type="curve" smooth="yes"/>
			<point x="426" y="0"/>
			<point x="454" y="290"/>
			<point x="454" y="395" type="curve" smooth="yes"/>
			<point x="454" y="497"/>
			<point x="428" y="745"/>
			<point x="253" y="745" type="curve" smooth="yes"/>
			<point x="209" y="745"/>
			<point x="161" y="729"/>
			<point x="132" y="706" type="curve"/>
		</contour>
	</outline>
</glyph>
<glyph name="product" format="2">
  <advance width="728"/>
  <unicode hex="220F"/>
  <outline>
    <contour>
      <point x="214" y="-98" type="move"/>
      <point x="214" y="670" type="line"/>
    </contour>
    <contour>
      <point x="514" y="-98" type="move"/>
      <point x="514" y="670" type="line"/>
    </contour>
    <contour>
      <point x="70" y="670" type="move"/>
      <point x="658" y="670" type="line"/>
    </contour>
  </outline>
</glyph>
<glyph name="summation" format="2">
  <advance width="531"/>
  <unicode hex="2211"/>
  <outline>
    <contour>
      <point x="491" y="-93" type="move"/>
      <point x="60" y="-93" type="line"/>
      <point x="60" y="-89" type="line"/>
      <point x="331" y="290" type="line"/>
      <point x="78" y="666" type="line"/>
      <point x="78" y="670" type="line"/>
      <point x="474" y="670" type="line"/>
    </contour>
  </outline>
</glyph>
<glyph name="uni2219" format="2">
  <advance width="320"/>
  <unicode hex="2219"/>
  <outline>
    <contour>
      <point x="159" y="356" type="move"/>
      <point x="132" y="356"/>
      <point x="110" y="334"/>
      <point x="110" y="306" type="curve" smooth="yes"/>
      <point x="110" y="278"/>
      <point x="132" y="256"/>
      <point x="160" y="256" type="curve" smooth="yes"/>
      <point x="188" y="256"/>
      <point x="210" y="278"/>
      <point x="210" y="306" type="curve" smooth="yes"/>
      <point x="210" y="334"/>
      <point x="188" y="356"/>
      <point x="161" y="356" type="curve"/>
    </contour>
  </outline>
</glyph>
<glyph name="radical" format="2">
  <advance width="624"/>
  <unicode hex="221A"/>
  <outline>
    <contour>
      <point x="60" y="378" type="move"/>
      <point x="223" y="-80" type="line"/>
      <point x="227" y="-80" type="line"/>
      <point x="451" y="745" type="line"/>
      <point x="634" y="745" type="line"/>
    </contour>
  </outline>
</glyph>
<glyph name="infinity" format="2">
	<advance width="870"/>
	<unicode hex="221E"/>
	<outline>
		<contour>
			<point x="770" y="274" type="move"/>
			<point x="770" y="201"/>
			<point x="724" y="135"/>
			<point x="636" y="135" type="curve" smooth="yes"/>
			<point x="477" y="135"/>
			<point x="392" y="416"/>
			<point x="232" y="416" type="curve" smooth="yes"/>
			<point x="145" y="416"/>
			<point x="100" y="349"/>
			<point x="100" y="277" type="curve" smooth="yes"/>
			<point x="100" y="205"/>
			<point x="144" y="135"/>
			<point x="232" y="135" type="curve" smooth="yes"/>
			<point x="391" y="135"/>
			<point x="477" y="416"/>
			<point x="636" y="416" type="curve" smooth="yes"/>
			<point x="724" y="416"/>
			<point x="770" y="348"/>
			<point x="770" y="276" type="curve"/>
		</contour>
	</outline>
</glyph>
<glyph name="integral" format="2">
	<advance width="420"/>
	<unicode hex="222B"/>
	<outline>
		<contour>
			<point x="60" y="-89" type="move"/>
			<point x="72" y="-98"/>
			<point x="91" y="-104"/>
			<point x="111" y="-104" type="curve" smooth="yes"/>
			<point x="177" y="-104"/>
			<point x="210" y="-60"/>
			<point x="210" y="50" type="curve" smooth="yes"/>
			<point x="210" y="590" type="line" smooth="yes"/>
			<point x="210" y="700"/>
			<point x="243" y="743"/>
			<point x="309" y="745" type="curve" smooth="yes"/>
			<point x="330" y="746"/>
			<point x="349" y="738"/>
			<point x="360" y="730" type="curve"/>
		</contour>
	</outline>
</glyph>
<glyph name="notequal" format="2">
	<advance width="574"/>
	<unicode hex="2260"/>
	<outline>
		<contour>
			<point x="474" y="222" type="move"/>
			<point x="100" y="222" type="line"/>
		</contour>
		<contour>
			<point x="190" y="105" type="move"/>
			<point x="384" y="540" type="line"/>
		</contour>
		<contour>
			<point x="474" y="422" type="move"/>
			<point x="100" y="422" type="line"/>
		</contour>
	</outline>
</glyph>
<glyph name="lessequal" format="2">
  <advance width="618"/>
  <unicode hex="2264"/>
  <outline>
    <contour>
      <point x="111" y="0" type="move"/>
      <point x="507" y="0" type="line"/>
    </contour>
    <component base="greater" xScale="-0.88" yScale="0.8" xOffset="596" yOffset="102"/>
  </outline>
</glyph>
<glyph name="uni25A1" format="2">
  <advance width="940"/>
  <unicode hex="25A1"/>
  <outline>
    <contour>
      <point x="140" y="668" type="move"/>
      <point x="140" y="10" type="line"/>
      <point x="800" y="10" type="line"/>
      <point x="800" y="670" type="line"/>
      <point x="140" y="670" type="line"/>
    </contour>
  </outline>
</glyph>
<glyph name="uni25B3" format="2">
  <advance width="819"/>
  <unicode hex="25B3"/>
  <outline>
    <contour>
      <point x="30" y="10" type="move"/>
      <point x="789" y="10" type="line"/>
      <point x="410" y="670" type="line"/>
      <point x="31" y="12" type="line"/>
    </contour>
  </outline>
</glyph>
<glyph name="uni25B5" format="2">
  <advance width="665"/>
  <unicode hex="25B5"/>
  <outline>
    <contour>
      <point x="20" y="10" type="move"/>
      <point x="645" y="10" type="line"/>
      <point x="332" y="545" type="line"/>
      <point x="21" y="12" type="line"/>
    </contour>
  </outline>
</glyph>
<glyph name="uni25C7" format="2">
  <advance width="780"/>
  <unicode hex="25C7"/>
  <outline>
    <contour>
      <point x="50" y="339" type="move"/>
      <point x="390" y="0" type="line"/>
      <point x="730" y="340" type="line"/>
      <point x="390" y="680" type="line"/>
      <point x="50" y="340" type="line"/>
    </contour>
  </outline>
</glyph>
<glyph name="circle" format="2">
	<advance width="840"/>
	<unicode hex="25CB"/>
	<outline>
		<contour>
			<point x="419" y="680" type="move"/>
			<point x="232" y="680"/>
			<point x="80" y="528"/>
			<point x="80" y="340" type="curve" smooth="yes"/>
			<point x="80" y="152"/>
			<point x="232" y="0"/>
			<point x="420" y="0" type="curve" smooth="yes"/>
			<point x="608" y="0"/>
			<point x="760" y="152"/>
			<point x="760" y="340" type="curve" smooth="yes"/>
			<point x="760" y="528"/>
			<point x="608" y="680"/>
			<point x="421" y="680" type="curve"/>
		</contour>
	</outline>
</glyph>
<glyph name="uni25E3" format="2">
	<advance width="669"/>
	<unicode hex="25E3"/>
	<outline>
		<contour>
			<point x="61" y="278" type="move"/>
			<point x="334" y="0" type="line"/>
			<point x="609" y="278" type="line"/>
			<point x="335" y="555" type="line"/>
			<point x="60" y="278" type="line"/>
		</contour>
	</outline>
</glyph>
<glyph name="uni25FB" format="2">
	<advance width="815"/>
	<unicode hex="25FB"/>
	<outline>
		<contour>
			<point x="140" y="543" type="move"/>
			<point x="140" y="10" type="line"/>
			<point x="675" y="10" type="line"/>
			<point x="675" y="545" type="line"/>
			<point x="140" y="545" type="line"/>
		</contour>
	</outline>
</glyph>
<glyph name="uni26AA" format="2">
	<advance width="715"/>
	<unicode hex="26AA"/>
	<outline>
		<contour>
			<point x="356" y="555" type="move"/>
			<point x="204" y="555"/>
			<point x="80" y="431"/>
			<point x="80" y="278" type="curve" smooth="yes"/>
			<point x="80" y="124"/>
			<point x="204" y="0"/>
			<point x="358" y="0" type="curve" smooth="yes"/>
			<point x="511" y="0"/>
			<point x="635" y="124"/>
			<point x="635" y="278" type="curve" smooth="yes"/>
			<point x="635" y="431"/>
			<point x="511" y="555"/>
			<point x="359" y="555" type="curve"/>
		</contour>
	</outline>
</glyph>
<glyph name="uni27F3" format="2">
  <advance width="860"/>
  <unicode hex="27F3"/>
  <outline>
    <contour>
      <point x="741" y="499" type="move"/>
      <point x="684" y="607"/>
      <point x="571" y="680"/>
      <point x="440" y="680" type="curve" smooth="yes"/>
      <point x="252" y="680"/>
      <point x="100" y="528"/>
      <point x="100" y="340" type="curve" smooth="yes"/>
      <point x="100" y="152"/>
      <point x="252" y="0"/>
      <point x="440" y="0" type="curve" smooth="yes"/>
      <point x="571" y="0"/>
      <point x="685" y="74"/>
      <point x="741" y="182" type="curve"/>
    </contour>
    <contour>
      <point x="495" y="490" type="move"/>
      <point x="741" y="499" type="line"/>
      <point x="750" y="745" type="line"/>
    </contour>
  </outline>
</glyph>
<glyph name="uniA78B" format="2">
  <advance width="140"/>
  <unicode hex="A78B"/>
  <outline>
    <contour>
      <point x="70" y="745" type="move"/>
      <point x="70" y="515" type="line"/>
    </contour>
  </outline>
</glyph>
<glyph name="uniA78C" format="2">
  <advance width="100"/>
  <unicode hex="A78C"/>
  <outline>
    <contour>
      <point x="50" y="745" type="move"/>
      <point x="50" y="555" type="line"/>
    </contour>
  </outline>
</glyph>
<glyph name="_module_g" format="2">
  <advance width="346"/>
  <outline>
    <contour>
      <point x="0" y="-107" type="move"/>
      <point x="34" y="-164"/>
      <point x="91" y="-190"/>
      <point x="165" y="-190" type="curve" smooth="yes"/>
      <point x="280" y="-190"/>
      <point x="346" y="-126"/>
      <point x="346" y="-2" type="curve" smooth="yes"/>
      <point x="346" y="555" type="line"/>
    </contour>
  </outline>
</glyph>
<glyph name="_module_rond" format="2">
	<advance width="383"/>
	<outline>
		<contour>
			<point x="0" y="137" type="move"/>
			<point x="43" y="52"/>
			<point x="108" y="0"/>
			<point x="193" y="0" type="curve" smooth="yes"/>
			<point x="329" y="0"/>
			<point x="383" y="132"/>
			<point x="383" y="279" type="curve" smooth="yes"/>
			<point x="383" y="447"/>
			<point x="316" y="555"/>
			<point x="194" y="555" type="curve" smooth="yes"/>
			<point x="121" y="555"/>
			<point x="54" y="517"/>
			<point x="0" y="421" type="curve"/>
		</contour>
	</outline>
</glyph>
<glyph name=".notdef" format="2">
	<advance width="670"/>
	<outline>
		<contour>
			<point x="140" y="680" type="move"/>
			<point x="530" y="680" type="line"/>
			<point x="530" y="0" type="line"/>
			<point x="140" y="0" type="line"/>
			<point x="140" y="679" type="line"/>
		</contour>
		<contour>
			<point x="530" y="680" type="move"/>
			<point x="140" y="0" type="line"/>
		</contour>
	</outline>
</glyph>
<glyph name="caron.alt" format="2">
	<advance width="137"/>
	<anchor x="107" y="774" name="_topright"/>
	<outline>
		<contour>
			<point x="50" y="607" type="move"/>
			<point x="107" y="690" type="line"/>
			<point x="107" y="774" type="line"/>
		</contour>
	</outline>
</glyph>
<glyph name="eight.dnom" format="2">
  <advance width="280"/>
  <outline>
    <contour>
      <point x="140" y="340" type="move"/>
      <point x="195" y="340"/>
      <point x="223" y="309"/>
      <point x="223" y="269" type="curve" smooth="yes"/>
      <point x="223" y="177"/>
      <point x="45" y="185"/>
      <point x="45" y="81" type="curve" smooth="yes"/>
      <point x="45" y="29"/>
      <point x="91" y="0"/>
      <point x="139" y="0" type="curve" smooth="yes"/>
      <point x="187" y="0"/>
      <point x="235" y="28"/>
      <point x="235" y="81" type="curve" smooth="yes"/>
      <point x="235" y="184"/>
      <point x="56" y="175"/>
      <point x="56" y="269" type="curve" smooth="yes"/>
      <point x="56" y="305"/>
      <point x="83" y="340"/>
      <point x="138" y="340" type="curve"/>
    </contour>
  </outline>
</glyph>
<glyph name="eight.osf" format="2">
	<advance width="559"/>
	<outline>
		<contour>
			<point x="278" y="706" type="move"/>
			<point x="377" y="706"/>
			<point x="446" y="655"/>
			<point x="446" y="569" type="curve" smooth="yes"/>
			<point x="446" y="374"/>
			<point x="90" y="375"/>
			<point x="90" y="167" type="curve" smooth="yes"/>
			<point x="90" y="71"/>
			<point x="166" y="0"/>
			<point x="280" y="0" type="curve" smooth="yes"/>
			<point x="404" y="0"/>
			<point x="469" y="83"/>
			<point x="469" y="167" type="curve" smooth="yes"/>
			<point x="469" y="363"/>
			<point x="112" y="381"/>
			<point x="112" y="567" type="curve" smooth="yes"/>
			<point x="112" y="647"/>
			<point x="177" y="706"/>
			<point x="276" y="706" type="curve"/>
		</contour>
	</outline>
</glyph>
<glyph name="exclam.ss04" format="2">
	<advance width="340"/>
	<outline>
		<contour>
			<point x="170" y="190" type="move"/>
			<point x="170" y="680" type="line"/>
		</contour>
		<component base="period.ss04" xOffset="20"/>
	</outline>
</glyph>
<glyph name="exclam.ss05" format="2">
	<advance width="314"/>
	<outline>
		<contour>
			<point x="160" y="180" type="move"/>
			<point x="160" y="680" type="line"/>
		</contour>
		<component base="period.ss05" xOffset="20"/>
	</outline>
</glyph>
<glyph name="five.osf" format="2">
	<advance width="566"/>
	<guideline x="47" y="-64" angle="0"/>
	<guideline x="47" y="-165" angle="0"/>
	<guideline x="47" y="158" angle="0"/>
	<outline>
		<contour>
			<point x="105" y="8" type="move" smooth="yes"/>
			<point x="132" y="-66"/>
			<point x="201" y="-117"/>
			<point x="283" y="-117" type="curve" smooth="yes"/>
			<point x="378" y="-117"/>
			<point x="468" y="-49"/>
			<point x="471" y="85" type="curve" smooth="yes"/>
			<point x="474" y="205"/>
			<point x="401" y="295"/>
			<point x="276" y="295" type="curve" smooth="yes"/>
			<point x="223" y="295"/>
			<point x="174" y="279"/>
			<point x="134" y="257" type="curve"/>
			<point x="144" y="565" type="line"/>
			<point x="454" y="565" type="line"/>
		</contour>
	</outline>
</glyph>
<glyph name="four.osf" format="2">
  <advance width="567"/>
  <guideline x="124" y="-64" angle="0"/>
  <guideline x="495" y="-64" angle="0"/>
  <guideline x="545" y="-64" angle="0"/>
  <outline>
    <contour>
      <point x="383" y="-133" type="move"/>
      <point x="383" y="565" type="line"/>
      <point x="373" y="565" type="line"/>
      <point x="60" y="31" type="line"/>
      <point x="60" y="27" type="line"/>
      <point x="507" y="27" type="line"/>
    </contour>
  </outline>
</glyph>
<glyph name="l.ss02" format="2">
	<advance width="270"/>
	<anchor x="109" y="0" name="bottom"/>
	<anchor x="140" y="389" name="center"/>
	<anchor x="209" y="745" name="top"/>
	<anchor x="290" y="745" name="topright"/>
	<outline>
		<contour>
			<point x="140" y="0" type="move"/>
			<point x="140" y="745" type="line"/>
		</contour>
	</outline>
</glyph>
<glyph name="lslash.ss02" format="2">
  <advance width="307"/>
  <outline>
    <contour>
      <point x="35" y="327" type="move"/>
      <point x="257" y="407" type="line"/>
    </contour>
    <component base="l.ss02"/>
  </outline>
</glyph>
<glyph name="one.osf" format="2">
  <advance width="443"/>
  <outline>
    <contour>
      <point x="293" y="0" type="move"/>
      <point x="293" y="565" type="line"/>
      <point x="289" y="565" type="line"/>
      <point x="95" y="424" type="line"/>
    </contour>
  </outline>
</glyph>
<glyph name="parenright.dnom" format="2">
  <advance width="150"/>
  <outline>
    <contour>
      <point x="35" y="366" type="move"/>
      <point x="78" y="303"/>
      <point x="100" y="238"/>
      <point x="100" y="154" type="curve" smooth="yes"/>
      <point x="100" y="70"/>
      <point x="71" y="-1"/>
      <point x="35" y="-58" type="curve" smooth="yes"/>
    </contour>
  </outline>
</glyph>
<glyph name="parenright.numr" format="2">
  <advance width="150"/>
  <outline>
    <contour>
      <point x="35" y="706" type="move"/>
      <point x="78" y="643"/>
      <point x="100" y="578"/>
      <point x="100" y="494" type="curve" smooth="yes"/>
      <point x="100" y="410"/>
      <point x="71" y="339"/>
      <point x="35" y="282" type="curve" smooth="yes"/>
    </contour>
  </outline>
</glyph>
<glyph name="period.ss04" format="2">
  <advance width="300"/>
  <outline>
    <contour>
      <point x="150" y="-20" type="move"/>
      <point x="150" y="90" type="line"/>
    </contour>
    <contour>
      <point x="151" y="90" type="move"/>
      <point x="149" y="90" type="line"/>
    </contour>
  </outline>
</glyph>
<glyph name="period.ss05" format="2">
	<advance width="274"/>
	<outline>
		<contour>
			<point x="164" y="0" type="move"/>
			<point x="164" y="67" type="line"/>
			<point x="110" y="67" type="line"/>
		</contour>
	</outline>
</glyph>
<glyph name="question.ss04" format="2">
  <advance width="493"/>
  <outline>
    <contour>
      <point x="225" y="190" type="move"/>
      <point x="225" y="242" type="line" smooth="yes"/>
      <point x="225" y="293"/>
      <point x="242" y="325"/>
      <point x="302" y="377" type="curve" smooth="yes"/>
      <point x="342" y="412"/>
      <point x="383" y="463"/>
      <point x="383" y="534" type="curve" smooth="yes"/>
      <point x="383" y="617"/>
      <point x="327" y="680"/>
      <point x="230" y="680" type="curve" smooth="yes"/>
      <point x="164" y="680"/>
      <point x="96" y="650"/>
      <point x="70" y="575" type="curve"/>
    </contour>
    <component base="period.ss04" xOffset="75"/>
  </outline>
</glyph>
<glyph name="seven.osf" format="2">
	<advance width="495"/>
	<guideline x="48" y="701" angle="0"/>
	<outline>
		<contour>
			<point x="112" y="-117" type="move"/>
			<point x="435" y="561" type="line"/>
			<point x="435" y="565" type="line"/>
			<point x="40" y="565" type="line"/>
		</contour>
	</outline>
</glyph>
<glyph name="six.osf" format="2">
  <advance width="572"/>
  <outline>
    <contour>
      <point x="384" y="706" type="move"/>
      <point x="268" y="591"/>
      <point x="90" y="368"/>
      <point x="90" y="205" type="curve" smooth="yes"/>
      <point x="90" y="123"/>
      <point x="141" y="0"/>
      <point x="292" y="0" type="curve" smooth="yes"/>
      <point x="420" y="0"/>
      <point x="492" y="92"/>
      <point x="492" y="198" type="curve" smooth="yes"/>
      <point x="492" y="311"/>
      <point x="411" y="401"/>
      <point x="297" y="401" type="curve" smooth="yes"/>
      <point x="228" y="401"/>
      <point x="151" y="368"/>
      <point x="105" y="297" type="curve" smooth="yes"/>
    </contour>
  </outline>
</glyph>
<glyph name="three.osf" format="2">
	<advance width="551"/>
	<guideline x="289" y="-64" angle="0"/>
	<guideline x="19" y="-165" angle="0"/>
	<outline>
		<contour>
			<point x="65" y="7" type="move"/>
			<point x="82" y="-63"/>
			<point x="154" y="-117"/>
			<point x="250" y="-117" type="curve" smooth="yes"/>
			<point x="364" y="-117"/>
			<point x="446" y="-41"/>
			<point x="446" y="67" type="curve" smooth="yes"/>
			<point x="446" y="172"/>
			<point x="368" y="250"/>
			<point x="239" y="250" type="curve"/>
			<point x="208" y="250" type="line"/>
		</contour>
		<contour>
			<point x="239" y="250" type="move"/>
			<point x="359" y="250"/>
			<point x="436" y="312"/>
			<point x="436" y="412" type="curve" smooth="yes"/>
			<point x="436" y="492"/>
			<point x="387" y="575"/>
			<point x="261" y="575" type="curve" smooth="yes"/>
			<point x="165" y="575"/>
			<point x="109" y="526"/>
			<point x="80" y="473" type="curve"/>
		</contour>
	</outline>
</glyph>
<glyph name="two.osf" format="2">
  <advance width="570"/>
  <outline>
    <contour>
      <point x="480" y="0" type="move"/>
      <point x="85" y="0" type="line"/>
      <point x="85" y="4" type="line"/>
      <point x="216" y="121" type="line" smooth="yes"/>
      <point x="297" y="193"/>
      <point x="440" y="312"/>
      <point x="440" y="431" type="curve" smooth="yes"/>
      <point x="440" y="510"/>
      <point x="383" y="575"/>
      <point x="282" y="575" type="curve" smooth="yes"/>
      <point x="186" y="575"/>
      <point x="124" y="516"/>
      <point x="101" y="443" type="curve"/>
    </contour>
  </outline>
</glyph>
<glyph name="uni030C.alt" format="2">
  <advance width="0"/>
  <anchor x="107" y="774" name="_topright"/>
  <outline>
    <contour>
      <point x="50" y="607" type="move"/>
      <point x="107" y="690" type="line"/>
      <point x="107" y="774" type="line"/>
    </contour>
  </outline>
</glyph>
<glyph name="y.ss03" format="2">
  <advance width="606"/>
  <anchor x="303" y="0" name="bottom"/>
  <anchor x="294" y="555" name="top"/>
  <outline>
    <contour>
      <point x="466" y="155" type="move"/>
      <point x="426" y="87"/>
      <point x="354" y="20"/>
      <point x="266" y="20" type="curve" smooth="yes"/>
      <point x="188" y="20"/>
      <point x="138" y="73"/>
      <point x="138" y="170" type="curve" smooth="yes"/>
      <point x="138" y="555" type="line"/>
    </contour>
    <component base="_module_g" xOffset="120" identifier="FC438474"/>
  </outline>
</glyph>
<glyph name="zero.dnom.zero" format="2">
  <advance width="311"/>
  <outline>
    <contour>
      <point x="79" y="40" type="move"/>
      <point x="235" y="296" type="line"/>
    </contour>
    <contour>
      <point x="155" y="340" type="move"/>
      <point x="81" y="340"/>
      <point x="45" y="264"/>
      <point x="45" y="169" type="curve" smooth="yes"/>
      <point x="45" y="73"/>
      <point x="81" y="0"/>
      <point x="156" y="0" type="curve" smooth="yes"/>
      <point x="230" y="0"/>
      <point x="266" y="73"/>
      <point x="266" y="169" type="curve" smooth="yes"/>
      <point x="266" y="264"/>
      <point x="230" y="340"/>
      <point x="157" y="340" type="curve"/>
    </contour>
  </outline>
</glyph>
<glyph name="zero.osf" format="2">
	<advance width="620"/>
	<outline>
		<contour>
			<point x="309" y="575" type="move" smooth="yes"/>
			<point x="164" y="575"/>
			<point x="90" y="444"/>
			<point x="90" y="287" type="curve" smooth="yes"/>
			<point x="90" y="125"/>
			<point x="166" y="0"/>
			<point x="310" y="0" type="curve" smooth="yes"/>
			<point x="455" y="0"/>
			<point x="530" y="125"/>
			<point x="530" y="287" type="curve" smooth="yes"/>
			<point x="530" y="444"/>
			<point x="456" y="575"/>
			<point x="311" y="575" type="curve"/>
		</contour>
	</outline>
</glyph>
<glyph name="zero.osf.zero" format="2">
  <advance width="620"/>
  <outline>
    <contour>
      <point x="168" y="59" type="move"/>
      <point x="457" y="510" type="line"/>
    </contour>
    <component base="zero.osf"/>
  </outline>
</glyph>
<glyph name="zero.zero" format="2">
  <advance width="622"/>
  <outline>
    <contour>
      <point x="158" y="79" type="move"/>
      <point x="469" y="592" type="line"/>
    </contour>
    <component base="zero"/>
  </outline>
</glyph>
